<svg width="350" height="223" viewBox="0 0 350 223" fill="none" xmlns="http://www.w3.org/2000/svg">
<rect width="350" height="223" rx="30" fill="white"/>
<path d="M332.488 87L322.145 137.765H303.076C296.646 137.765 295.532 136.449 292.974 132.315L273.007 101.995C272.398 101.145 271.631 100.099 270.406 100.285C269.298 100.441 268.948 101.197 268.683 102.231L261.44 137.765H247.315L257.662 87H274.781C281.197 87 283.46 87.8671 286.353 92.348L306.563 122.96C307.332 124.193 308.21 125.17 309.389 125.064C309.927 125.017 310.674 124.65 311.003 123.181L318.396 87H332.488Z" fill="#0F298F"/>
<path d="M41.5035 87H80.4349C87.8011 87 88.9206 89.3664 90.9463 95.2022L105.755 137.765H87.2314L84.5198 129.305H42.8037L36.0999 137.765H17L42.515 108.031C45.1391 104.956 46.4516 104.335 50.3248 104.335C50.3248 104.335 59.9883 104.335 62.5792 104.335L50.4884 119.602H81.4109L74.5982 98.3404C74.071 96.8823 73.0936 96.6556 72.1442 96.6556H49.9398C46.8624 96.6556 45.4764 95.6888 44.5061 93.9064L41.5035 87Z" fill="#0F298F"/>
<path d="M121.153 87L110.811 137.765H127.593L137.931 87H121.153Z" fill="#0F298F"/>
<path d="M228.148 87L217.805 137.765H234.586L244.929 87H228.148Z" fill="#0F298F"/>
<path d="M216.653 87.1899C216.653 87.1899 178.68 87.1899 168.343 87.1899C156.3 87.1899 146.395 88.9224 143.722 100.422C141.664 109.272 147.215 117.2 161.834 117.2C161.834 117.2 181.203 117.2 187.145 117.2C192.702 117.2 194.727 118.914 194.295 122.309C193.907 125.352 191.905 127.53 185.265 127.53C185.265 127.53 149.2 127.53 146.422 127.53C144.081 127.53 141.818 127.481 140.578 131.233L138.472 137.556C138.472 137.556 174.361 137.556 183.082 137.556C191.802 137.556 210.344 137.281 212.563 122.238C214.004 112.463 209.703 107.083 192.189 107.083C192.189 107.083 172.817 107.083 169.421 107.083C164.639 107.083 161.162 106.029 161.547 102.096C161.962 97.9196 165.489 97.5381 169.859 97.5381C169.859 97.5381 201.296 97.5381 207.392 97.5381C211.402 97.5381 212.64 97.5381 213.951 94.0674L216.653 87.1899Z" fill="#0F298F"/>
</svg>
