<svg width="160" height="160" viewBox="0 0 160 160" fill="none" xmlns="http://www.w3.org/2000/svg">
<g filter="url(#filter0_d_91_253)">
<rect x="15" y="15" width="130" height="130" rx="23" fill="#8512FB"/>
</g>
<path d="M87.623 70.4023C87.623 66.5176 84.8809 64.373 80.0645 64.373H71.2051V76.8887H78.6758C84.4414 76.8711 87.623 74.5508 87.623 70.4023ZM119.879 68.1523C118.209 62.7207 117.963 56.0586 118.156 50.9082C118.35 45.5469 114.166 40.625 108.541 40.625H50.7441C45.1016 40.625 40.9355 45.5645 41.1289 50.9082C41.3047 56.0586 41.0762 62.7207 39.4062 68.1523C37.7188 73.6016 34.8887 77.0469 30.2305 77.4863V82.4961C34.8711 82.9356 37.7188 86.3809 39.4062 91.8301C41.0762 97.2617 41.3223 103.924 41.1289 109.074C40.9355 114.436 45.1191 119.357 50.7441 119.357H108.523C114.166 119.357 118.332 114.418 118.139 109.074C117.963 103.924 118.191 97.2617 119.861 91.8301C121.549 86.3809 124.379 82.9356 129.02 82.4961V77.4863C124.396 77.0469 121.549 73.6016 119.879 68.1523ZM81.7695 100.936H64.5605V59.0469H81.6816C89.293 59.0469 94.2852 63.1602 94.2852 69.4883C94.2852 73.9355 90.9277 77.9082 86.6387 78.5938V78.8223C92.4746 79.4551 96.3945 83.498 96.3945 89.0703C96.3945 96.4707 90.8926 100.936 81.7695 100.936ZM80.0117 81.8281H71.2051V95.6094H80.3984C86.4102 95.6094 89.5918 93.2012 89.5918 88.666C89.5918 84.1484 86.3223 81.8281 80.0117 81.8281Z" fill="white"/>
<defs>
<filter id="filter0_d_91_253" x="13" y="15" width="134" height="134" filterUnits="userSpaceOnUse" color-interpolation-filters="sRGB">
<feFlood flood-opacity="0" result="BackgroundImageFix"/>
<feColorMatrix in="SourceAlpha" type="matrix" values="0 0 0 0 0 0 0 0 0 0 0 0 0 0 0 0 0 0 127 0" result="hardAlpha"/>
<feOffset dy="2"/>
<feGaussianBlur stdDeviation="1"/>
<feComposite in2="hardAlpha" operator="out"/>
<feColorMatrix type="matrix" values="0 0 0 0 0 0 0 0 0 0 0 0 0 0 0 0 0 0 0.25 0"/>
<feBlend mode="normal" in2="BackgroundImageFix" result="effect1_dropShadow_91_253"/>
<feBlend mode="normal" in="SourceGraphic" in2="effect1_dropShadow_91_253" result="shape"/>
</filter>
</defs>
</svg>
