<svg width="160" height="160" viewBox="0 0 160 160" fill="none" xmlns="http://www.w3.org/2000/svg">
<g filter="url(#filter0_d_91_239)">
<rect x="15" y="15" width="130" height="130" rx="23" fill="#EF3B2D"/>
</g>
<g clip-path="url(#clip0_91_239)">
<path d="M126.664 55.3608C126.65 55.32 126.634 55.28 126.615 55.2413C126.59 55.1657 126.559 55.0922 126.522 55.0216C126.493 54.9777 126.461 54.9359 126.427 54.8968C126.388 54.8391 126.346 54.7839 126.3 54.7315C126.26 54.6928 126.209 54.6612 126.165 54.626C126.115 54.5829 126.062 54.543 126.007 54.5065L109.086 44.7647C108.872 44.6413 108.63 44.5763 108.383 44.5763C108.136 44.5763 107.893 44.6413 107.68 44.7647L90.7555 54.5118C90.7012 54.5486 90.6495 54.5891 90.6008 54.6331C90.5529 54.6653 90.5071 54.7005 90.4637 54.7385C90.4177 54.79 90.3754 54.8446 90.3371 54.902C90.3072 54.9442 90.2686 54.9811 90.2422 55.0268C90.2067 55.0979 90.1761 55.1713 90.1508 55.2466C90.1367 55.287 90.1139 55.3239 90.1016 55.3661C90.0693 55.4853 90.0528 55.6082 90.0524 55.7317V74.2309L75.9512 82.3503V46.1516C75.9515 46.0275 75.9349 45.9039 75.902 45.7843C75.8914 45.7421 75.8668 45.7051 75.8527 45.6647C75.8282 45.5897 75.7976 45.5168 75.7613 45.4468C75.7367 45.401 75.6963 45.3641 75.6664 45.3202C75.6278 45.2625 75.5855 45.2073 75.5399 45.155C75.496 45.1174 75.4502 45.0822 75.4027 45.0495C75.3535 45.0067 75.3018 44.9668 75.2481 44.93L58.3221 35.1882C58.1083 35.0647 57.8658 34.9998 57.619 34.9998C57.3721 34.9998 57.1296 35.0647 56.9158 35.1882L39.9934 44.93C39.9384 44.9659 39.8867 45.0065 39.8387 45.0512C39.7902 45.0834 39.7438 45.1186 39.6998 45.1567C39.6544 45.2081 39.6126 45.2628 39.575 45.3202C39.5434 45.3641 39.5047 45.401 39.4783 45.4468C39.4423 45.5167 39.4123 45.5896 39.3887 45.6647C39.3695 45.703 39.3525 45.7423 39.3377 45.7825C39.3054 45.9029 39.2888 46.027 39.2885 46.1516V104.107C39.2878 104.354 39.3525 104.598 39.4759 104.812C39.5994 105.027 39.7773 105.205 39.9916 105.328L73.8295 124.812C73.9047 124.85 73.9829 124.882 74.0633 124.907C74.1002 124.921 74.1354 124.942 74.174 124.953C74.4101 125.016 74.6587 125.016 74.8947 124.953C74.9299 124.944 74.9598 124.924 74.9914 124.914C75.0763 124.887 75.1586 124.853 75.2375 124.812L109.086 105.328C109.3 105.205 109.478 105.027 109.602 104.812C109.725 104.598 109.79 104.354 109.789 104.107V85.604L126.003 76.2682C126.219 76.1437 126.397 75.9642 126.521 75.7481C126.645 75.5319 126.708 75.2868 126.706 75.0378V55.7282C126.707 55.6045 126.693 55.4811 126.664 55.3608ZM57.6172 38.0376L71.7131 46.1499L57.6154 54.2675L43.5213 46.1516L57.6172 38.0376ZM73.1299 48.5844V83.9727L64.9508 88.6819L59.0287 92.0921V56.7091L67.2078 51.9999L73.1299 48.5844ZM73.1299 121.143L42.108 103.291V48.5915L48.0301 51.9981L56.2074 56.7091V94.5337C56.211 94.5868 56.2181 94.6396 56.2285 94.6919C56.2327 94.7616 56.2421 94.8309 56.2567 94.8993C56.2745 94.9538 56.2969 95.0067 56.3234 95.0575C56.343 95.1181 56.3677 95.1769 56.3973 95.2333C56.4298 95.281 56.465 95.3267 56.5027 95.3704C56.5379 95.4223 56.5767 95.4716 56.6188 95.518C56.6592 95.5567 56.7102 95.5848 56.7541 95.62C56.8021 95.6617 56.8526 95.7004 56.9053 95.736L73.1106 104.908L73.1299 121.143ZM74.5361 102.481L60.4631 94.5143L75.2445 86.0048L91.4621 76.669L105.547 84.7778L95.2115 90.677L74.5361 102.481ZM106.971 103.284L75.9477 121.152V104.926L98.9258 91.8126L106.971 87.2159V103.284ZM106.971 82.3432L101.049 78.9454L92.8701 74.2362V58.1663L98.7922 61.5764L106.971 66.2891V82.3432ZM108.378 63.837L94.2799 55.7212L108.378 47.6071L122.472 55.7194L108.378 63.837ZM109.784 82.3432V66.2891L117.98 61.5764L123.901 58.1663V74.2309L109.784 82.3432Z" fill="white"/>
</g>
<defs>
<filter id="filter0_d_91_239" x="13" y="15" width="134" height="134" filterUnits="userSpaceOnUse" color-interpolation-filters="sRGB">
<feFlood flood-opacity="0" result="BackgroundImageFix"/>
<feColorMatrix in="SourceAlpha" type="matrix" values="0 0 0 0 0 0 0 0 0 0 0 0 0 0 0 0 0 0 127 0" result="hardAlpha"/>
<feOffset dy="2"/>
<feGaussianBlur stdDeviation="1"/>
<feComposite in2="hardAlpha" operator="out"/>
<feColorMatrix type="matrix" values="0 0 0 0 0 0 0 0 0 0 0 0 0 0 0 0 0 0 0.25 0"/>
<feBlend mode="normal" in2="BackgroundImageFix" result="effect1_dropShadow_91_239"/>
<feBlend mode="normal" in="SourceGraphic" in2="effect1_dropShadow_91_239" result="shape"/>
</filter>
<clipPath id="clip0_91_239">
<rect width="90" height="90" fill="white" transform="translate(38 35)"/>
</clipPath>
</defs>
</svg>
