<svg width="350" height="223" viewBox="0 0 350 223" fill="none" xmlns="http://www.w3.org/2000/svg">
<rect width="350" height="223" rx="30" fill="white"/>
<path d="M123.174 98.0551C124.554 98.0551 125.655 98.4395 126.477 99.2259C127.298 99.9948 127.7 101.026 127.7 102.301C127.7 103.595 127.28 104.643 126.442 105.412C125.603 106.198 124.467 106.583 123.052 106.583H120.151V110.34H117.128V98.0551H123.174ZM122.824 104.049C123.419 104.049 123.873 103.892 124.205 103.577C124.537 103.263 124.712 102.843 124.712 102.319C124.712 101.812 124.537 101.41 124.205 101.096C123.855 100.781 123.401 100.624 122.824 100.624H120.151V104.031H122.824V104.049Z" fill="#00426D"/>
<path d="M139.356 99.6452C140.631 100.886 141.26 102.406 141.26 104.206C141.26 105.989 140.631 107.509 139.356 108.75C138.08 109.99 136.542 110.619 134.707 110.619C132.872 110.619 131.317 109.99 130.059 108.75C128.783 107.509 128.154 105.989 128.154 104.206C128.154 102.406 128.783 100.886 130.059 99.6452C131.317 98.4045 132.872 97.7754 134.707 97.7754C136.542 97.7754 138.097 98.4045 139.356 99.6452ZM137.224 106.81C137.905 106.128 138.237 105.255 138.237 104.224C138.237 103.175 137.905 102.301 137.224 101.602C136.542 100.903 135.703 100.554 134.707 100.554C133.694 100.554 132.855 100.903 132.191 101.602C131.509 102.301 131.177 103.175 131.177 104.224C131.177 105.255 131.509 106.128 132.191 106.81C132.855 107.509 133.694 107.841 134.707 107.841C135.703 107.841 136.542 107.491 137.224 106.81Z" fill="#00426D"/>
<path d="M151.326 110.34H142.239V98.0551H145.262V107.701H151.326V110.34Z" fill="#00426D"/>
<path d="M155.31 98.0551H152.287V110.34H155.31V98.0551Z" fill="#00426D"/>
<path d="M163.017 100.694V110.34H159.993V100.694H156.009V98.0551H167.001V100.694H163.017Z" fill="#00426D"/>
<path d="M177.294 110.34H167.7V98.0551H177.224V100.659H170.723V102.965H176.699V105.429H170.723V107.736H177.294V110.34Z" fill="#00426D"/>
<path d="M186.136 110.34L182.117 105.709H181.47V110.34H178.447V98.0551H181.47V102.931H181.924L186.101 98.0551H189.736L184.511 104.206L190.103 110.34H186.136Z" fill="#00426D"/>
<path d="M202.143 110.34H199.644L193.423 103.228V110.34H190.382V98.0551H192.899L199.137 105.395V98.0551H202.143V110.34Z" fill="#00426D"/>
<path d="M206.582 98.0551H203.558V110.34H206.582V98.0551Z" fill="#00426D"/>
<path d="M215.686 110.34L211.667 105.709H211.02V110.34H207.98V98.0551H211.02V102.931H211.457L215.651 98.0551H219.286L214.043 104.206L219.653 110.34H215.686Z" fill="#00426D"/>
<path d="M232.549 110.34H223.462V98.0551H226.485V107.701H232.549V110.34Z" fill="#00426D"/>
<path d="M239.574 98.0551C240.955 98.0551 242.055 98.4395 242.877 99.2259C243.698 99.9948 244.1 101.026 244.1 102.301C244.1 103.595 243.681 104.643 242.842 105.412C242.003 106.198 240.867 106.583 239.452 106.583H236.551V110.34H233.528V98.0551H239.574ZM239.225 104.049C239.819 104.049 240.273 103.892 240.605 103.577C240.937 103.263 241.112 102.843 241.112 102.319C241.112 101.812 240.937 101.41 240.605 101.096C240.256 100.781 239.801 100.624 239.225 100.624H236.551V104.031H239.225V104.049Z" fill="#00426D"/>
<path d="M253.834 106.653C253.834 107.806 253.397 108.767 252.54 109.501C251.684 110.235 250.583 110.602 249.238 110.602C247.945 110.602 246.861 110.252 245.987 109.553C245.114 108.854 244.607 107.911 244.485 106.723L247.35 106.198C247.438 106.81 247.647 107.282 247.962 107.614C248.294 107.946 248.713 108.103 249.255 108.103C249.762 108.103 250.199 107.963 250.531 107.684C250.863 107.404 251.02 107.055 251.02 106.618C251.02 106.198 250.88 105.866 250.583 105.622C250.286 105.377 249.884 105.255 249.36 105.255H247.945V103.018H249.238C249.744 103.018 250.164 102.896 250.443 102.651C250.741 102.406 250.88 102.074 250.88 101.672C250.88 101.253 250.723 100.903 250.426 100.641C250.129 100.379 249.727 100.257 249.238 100.257C248.731 100.257 248.294 100.414 247.98 100.746C247.647 101.078 247.455 101.567 247.403 102.232L244.624 101.707C244.764 100.501 245.236 99.5404 246.075 98.8239C246.914 98.1074 247.962 97.7579 249.22 97.7579C250.531 97.7579 251.597 98.1249 252.401 98.8414C253.222 99.5578 253.624 100.484 253.624 101.637C253.624 102.773 253.187 103.595 252.296 104.119C253.327 104.626 253.834 105.482 253.834 106.653Z" fill="#00426D"/>
<path d="M257.853 98.0551H254.83V110.34H257.853V98.0551Z" fill="#00426D"/>
<path d="M90.3561 138.929C90.0765 138.789 89.5697 139.418 89.36 139.645C89.2901 139.715 89.2202 139.768 89.1678 139.855C89.1154 139.925 89.0455 139.995 88.993 140.047C88.9057 140.135 88.8532 140.187 88.7833 140.24C88.7134 140.274 88.661 140.309 88.6086 140.309C88.4513 140.344 88.2416 140.222 87.9445 139.977C87.6649 139.733 87.5251 139.523 87.4902 139.401C87.4727 139.209 87.63 138.772 87.997 138.09C88.3639 137.426 88.5212 136.884 88.4688 136.465C88.4513 136.308 88.3989 136.185 88.3465 136.115C88.2766 136.046 88.1892 136.011 88.0669 136.028C88.0144 136.028 87.9445 136.115 87.8572 136.273C87.7873 136.43 87.6649 136.64 87.5601 136.954C87.3504 137.513 87.1756 137.95 87.0359 138.247C86.9135 138.527 86.8262 138.684 86.7737 138.719C86.4592 138.842 86.2495 138.981 86.1446 139.139C86.0572 139.296 86.0048 139.541 86.0048 139.89V140.117C85.9349 140.362 85.865 140.589 85.7776 140.799C85.7077 141.008 85.6204 141.183 85.533 141.358C85.5155 141.428 85.4981 141.463 85.4631 141.498C85.4282 141.533 85.3757 141.568 85.3233 141.568C85.2884 141.568 85.2883 141.568 85.2709 141.568C85.2534 141.55 85.2534 141.533 85.2359 141.498C85.2359 141.445 85.2359 141.34 85.2534 141.166C85.2709 141.008 85.3058 140.764 85.3408 140.484C85.3932 140.17 85.4456 139.873 85.4806 139.558C85.5155 139.243 85.5679 138.946 85.6204 138.632C85.6728 138.247 85.7252 137.898 85.8126 137.601C85.8825 137.286 85.9524 137.042 86.0223 136.832C86.3718 135.871 86.6164 135.084 86.7562 134.42C86.896 133.756 86.9485 133.267 86.896 132.918C86.8436 132.603 86.7737 132.376 86.6339 132.219C86.5116 132.061 86.3368 132.009 86.1271 132.044C86.0922 132.044 86.0398 132.061 86.0223 132.096C85.9874 132.131 85.9524 132.166 85.9349 132.219C85.8475 132.428 85.7776 132.638 85.7077 132.865C85.6378 133.092 85.5854 133.337 85.5505 133.582C85.5505 133.669 85.5155 133.739 85.4981 133.809C85.4631 133.879 85.4456 133.931 85.4281 133.966C85.3932 134.053 85.3408 134.246 85.2709 134.508C85.201 134.77 85.1136 135.102 85.0262 135.521C84.9214 135.958 84.8515 136.325 84.7991 136.587C84.7292 136.867 84.6942 137.059 84.6767 137.181C84.5894 137.321 84.502 137.513 84.3971 137.758C84.3098 138.003 84.2049 138.3 84.1001 138.649C84.0127 138.894 83.9428 139.121 83.8554 139.331C83.7505 139.523 83.6457 139.698 83.5059 139.838C83.436 139.925 83.3836 140.012 83.3311 140.065C83.2787 140.135 83.2438 140.187 83.2263 140.257C83.2088 140.327 83.1914 140.379 83.1739 140.414C83.1564 140.432 82.9642 140.659 82.8943 140.729C82.8244 140.816 82.7545 140.904 82.6846 140.973C82.5797 141.078 82.4924 141.148 82.405 141.201C82.3176 141.253 82.2128 141.271 82.1254 141.288C82.0555 141.288 81.9856 141.288 81.9157 141.271C81.8633 141.253 81.8109 141.236 81.7934 141.166C81.7584 141.131 81.706 141.026 81.6186 140.816C81.5313 140.606 81.4788 140.467 81.4089 140.362C81.374 140.187 81.3216 140.03 81.2691 139.873C81.2167 139.698 81.1643 139.558 81.0944 139.383C81.0245 139.208 80.9196 139.086 80.7798 139.016C80.64 138.946 80.4828 138.911 80.2905 138.946C80.2206 138.964 80.1507 138.981 80.0983 139.034C80.0284 139.086 79.976 139.139 79.941 139.243C79.8362 139.471 79.609 139.75 79.2945 140.1C78.9799 140.467 78.7702 140.746 78.6479 140.973L78.6304 141.061C78.6304 141.061 78.5256 141.218 78.4557 141.253C78.4032 141.288 78.3508 141.305 78.2809 141.323C78.1935 141.34 78.1062 141.305 78.0188 141.236C77.9314 141.166 77.8615 141.061 77.7742 140.904C77.6518 140.624 77.512 140.344 77.3547 140.047C77.2324 139.89 77.1101 139.785 76.9878 139.715C76.848 139.645 76.6907 139.628 76.5334 139.663C76.4461 139.663 76.3587 139.698 76.2538 139.768C76.149 139.838 76.0267 139.907 75.8869 139.995C75.782 140.1 75.6772 140.187 75.5898 140.274C75.5024 140.362 75.4325 140.449 75.3626 140.519C75.3277 140.589 75.2927 140.641 75.2752 140.676C75.2578 140.729 75.2228 140.781 75.2053 140.799C75.118 140.886 75.0481 140.973 74.9782 141.078C74.9083 141.166 74.8733 141.271 74.8384 141.358C74.7335 141.48 74.6461 141.585 74.5588 141.69C74.4889 141.795 74.4365 141.882 74.4015 141.97C74.384 142.004 74.3491 142.039 74.3316 142.074C74.3141 142.109 74.2966 142.127 74.2617 142.144C74.2267 142.109 74.1918 142.074 74.1918 142.039C74.1918 142.004 74.1918 141.97 74.1918 141.917C74.1918 141.865 74.2093 141.795 74.2268 141.725C74.2617 141.638 74.2792 141.533 74.3141 141.41C74.4365 140.816 74.5064 140.362 74.5413 139.995C74.5937 139.645 74.5937 139.401 74.5763 139.278C74.5413 139.051 74.4714 138.894 74.3666 138.772C74.2617 138.667 74.1044 138.632 73.9297 138.667C73.7375 138.684 73.5627 138.754 73.4054 138.859C73.2482 138.964 73.1083 139.121 72.986 139.313C72.8462 139.541 72.7064 139.715 72.6016 139.89C72.4967 140.03 72.4094 140.17 72.3395 140.274C72.1822 140.519 72.0424 140.729 71.9201 140.904C71.7978 141.078 71.7104 141.236 71.623 141.34C71.5356 141.463 71.4482 141.568 71.3783 141.655C71.3084 141.742 71.2385 141.812 71.2036 141.865C71.1686 141.935 71.1337 142.004 71.0987 142.039C71.0638 142.092 71.0463 142.127 71.0288 142.179V142.197C70.9589 142.249 70.9065 142.319 70.8541 142.389C70.8017 142.459 70.7318 142.529 70.6793 142.581C70.592 142.669 70.5221 142.738 70.4697 142.773C70.4172 142.808 70.3473 142.843 70.2949 142.843C70.1376 142.878 69.9279 142.756 69.6483 142.511C69.3687 142.267 69.2115 142.074 69.194 141.935C69.159 141.742 69.3338 141.305 69.7007 140.624C70.0677 139.942 70.225 139.401 70.1726 138.999C70.1551 138.842 70.1027 138.719 70.0502 138.649C69.9803 138.579 69.893 138.544 69.7707 138.562C69.7182 138.579 69.6483 138.649 69.561 138.807C69.4736 138.964 69.3687 139.191 69.2464 139.488C69.0367 140.065 68.8619 140.484 68.7396 140.781C68.5998 141.078 68.5124 141.236 68.4775 141.253C68.1629 141.375 67.9533 141.515 67.8484 141.672C67.7436 141.83 67.7086 142.074 67.7086 142.424V142.651C67.6387 142.896 67.5688 143.123 67.4814 143.333C67.4115 143.542 67.3242 143.717 67.2368 143.892C67.2193 143.944 67.2018 144.014 67.1669 144.049C67.1319 144.084 67.097 144.101 67.0446 144.119C67.0271 144.119 66.9921 144.119 66.9921 144.101C66.9747 144.084 66.9572 144.067 66.9572 144.032C66.9572 143.979 66.9572 143.874 66.9747 143.7C66.9922 143.542 67.0271 143.315 67.0795 143.036C67.1319 142.738 67.1669 142.424 67.2193 142.109C67.2543 141.812 67.3067 141.498 67.3591 141.201C67.429 140.816 67.4815 140.467 67.5514 140.152C67.6213 139.855 67.6912 139.593 67.7611 139.383C68.1105 138.44 68.3377 137.636 68.495 136.989C68.6173 136.325 68.6697 135.818 68.6173 135.469C68.5824 135.154 68.495 134.927 68.3727 134.787C68.2503 134.63 68.0756 134.578 67.8659 134.613C67.8309 134.613 67.796 134.63 67.7436 134.683C67.7086 134.717 67.6911 134.752 67.6562 134.805C67.5863 134.997 67.5164 135.224 67.429 135.434C67.3591 135.661 67.3067 135.906 67.2717 136.168C67.2717 136.255 67.2368 136.325 67.2193 136.395C67.1844 136.447 67.1669 136.5 67.1494 136.535C67.1145 136.64 67.062 136.814 66.9921 137.094C66.9222 137.356 66.8349 137.706 66.7475 138.125C66.6427 138.562 66.5553 138.911 66.5029 139.191C66.4504 139.471 66.4155 139.68 66.398 139.785C66.3106 139.925 66.2232 140.117 66.1184 140.362C66.031 140.606 65.9262 140.904 65.8213 141.253C65.7339 141.498 65.6466 141.725 65.5592 141.935C65.4718 142.127 65.3495 142.302 65.2272 142.441C65.1573 142.529 65.1049 142.599 65.0524 142.669C65 142.738 64.9651 142.808 64.9476 142.861C64.9301 142.931 64.9126 142.983 64.8951 143.018C64.8777 143.053 64.8602 143.07 64.8428 143.088C64.8078 143.14 64.7554 143.193 64.6855 143.228C64.633 143.263 64.5981 143.298 64.5631 143.315C64.4408 143.42 64.301 143.49 64.1438 143.577C63.9865 143.647 63.7942 143.717 63.602 143.752C63.4797 143.734 63.3574 143.734 63.27 143.717C63.1652 143.7 63.0953 143.665 63.0428 143.647C62.9729 143.612 62.903 143.56 62.8506 143.49C62.7982 143.402 62.7632 143.315 62.7458 143.21C62.7283 143.14 62.7457 143.088 62.7632 143.018C62.7807 142.966 62.8157 142.913 62.8331 142.861C63.2176 142.371 63.5146 141.952 63.7243 141.585C63.934 141.218 64.0564 140.904 64.0913 140.641L64.1263 140.379C64.1437 140.24 64.1612 140.152 64.1612 140.1C64.1612 140.03 64.1787 140.012 64.1961 140.065C64.1612 139.942 64.1263 139.82 64.0913 139.733C64.0564 139.61 63.9865 139.506 63.9515 139.436C63.8991 139.348 63.8467 139.296 63.8117 139.261C63.7593 139.208 63.6719 139.174 63.5845 139.156C63.4972 139.139 63.3923 139.139 63.27 139.156C63.1826 139.174 63.0952 139.191 63.0253 139.226C62.938 139.261 62.8681 139.296 62.8157 139.313C62.7458 139.383 62.6933 139.436 62.6234 139.471C62.571 139.523 62.5011 139.575 62.4662 139.628C62.3613 139.785 62.2564 139.96 62.1516 140.117C62.0467 140.274 61.9419 140.432 61.8545 140.572C61.7497 140.799 61.6798 141.008 61.6099 141.201C61.5575 141.375 61.505 141.533 61.4875 141.655C61.4526 141.777 61.4351 141.9 61.4177 141.987C61.4002 142.092 61.3827 142.179 61.3827 142.267C61.3827 142.371 61.3827 142.476 61.3827 142.581V142.913C61.2429 143.053 61.138 143.193 61.0507 143.315C60.9633 143.437 60.8934 143.577 60.841 143.682C60.5264 144.032 60.2993 144.276 60.1245 144.468C59.9498 144.643 59.8449 144.748 59.81 144.748C59.7576 144.766 59.7226 144.748 59.6877 144.696C59.6527 144.661 59.6352 144.591 59.6177 144.521C59.6003 144.416 59.6003 144.224 59.6003 143.962C59.6003 143.682 59.6178 143.315 59.6352 142.861C59.7051 142.284 59.7576 141.777 59.81 141.375C59.8624 140.956 59.9148 140.606 59.9672 140.327C59.9847 140.222 59.9847 140.135 59.9847 140.047C60.0022 139.977 60.0022 139.89 60.0022 139.838L60.5264 139.663C60.5963 139.645 60.6138 139.541 60.6313 139.383C60.6313 139.208 60.6138 138.964 60.5614 138.649C60.5439 138.562 60.5439 138.51 60.5264 138.457C60.5089 138.405 60.474 138.387 60.4391 138.37C60.4041 138.335 60.3692 138.317 60.3517 138.3C60.3342 138.282 60.3168 138.265 60.2993 138.247C60.2993 138.143 60.3167 137.985 60.3692 137.776C60.4216 137.583 60.4216 137.409 60.4216 137.286C60.3867 137.129 60.3342 137.024 60.2643 136.954C60.1944 136.884 60.0896 136.849 59.9672 136.884C59.7401 136.919 59.5478 137.199 59.4081 137.723C59.2857 138.247 59.111 138.527 58.9362 138.562L58.6741 138.527C58.5867 138.544 58.5168 138.579 58.4644 138.597C58.3945 138.614 58.3246 138.632 58.2722 138.667C58.2198 138.649 58.1324 138.649 58.0275 138.649C57.9227 138.649 57.8004 138.667 57.6606 138.684C57.5907 138.702 57.5208 138.737 57.4334 138.772C57.3285 138.772 57.2237 138.754 57.0839 138.772C56.9616 138.772 56.8218 138.789 56.6645 138.807C56.5247 138.824 56.4199 138.929 56.3674 139.121C56.315 139.296 56.315 139.558 56.3674 139.907C56.3674 139.942 56.4024 139.995 56.4373 140.012C56.4723 140.047 56.5247 140.065 56.5946 140.082C56.6295 140.1 56.682 140.1 56.7344 140.117C56.7868 140.117 56.8393 140.152 56.8917 140.17C56.9266 140.17 57.014 140.152 57.1014 140.152C57.2062 140.135 57.2761 140.135 57.3111 140.135L58.3071 140.012C58.3421 140.012 58.3945 139.995 58.4644 139.96C58.5343 139.925 58.5867 139.925 58.6217 139.907C58.6566 139.89 58.6916 139.907 58.7091 139.925C58.7265 139.942 58.744 139.96 58.744 139.995C58.6916 140.135 58.6566 140.257 58.6217 140.362C58.5867 140.467 58.5518 140.537 58.5168 140.606C58.2547 141.288 57.9751 141.882 57.6955 142.406C57.3984 142.931 57.1013 143.385 56.7693 143.804C56.7169 143.892 56.6645 143.979 56.6296 144.049C56.5946 144.119 56.5596 144.171 56.5247 144.224L56.5072 144.294C56.4373 144.364 56.35 144.451 56.2801 144.538C56.2102 144.626 56.1228 144.696 56.0703 144.783C55.983 144.87 55.8781 144.958 55.7908 144.993C55.7034 145.045 55.5985 145.063 55.5111 145.08C55.4412 145.098 55.3714 145.08 55.3015 145.08C55.249 145.063 55.1966 145.028 55.1791 144.975C55.1442 144.958 55.0918 144.835 55.0044 144.626C54.917 144.416 54.8646 144.276 54.8121 144.171C54.7772 144.014 54.7073 143.839 54.6549 143.682C54.6025 143.525 54.5326 143.368 54.4801 143.21C54.4102 143.036 54.3054 142.896 54.1656 142.826C54.0258 142.756 53.8685 142.738 53.6763 142.756C53.6064 142.756 53.554 142.791 53.4841 142.826C53.4142 142.878 53.3617 142.948 53.3268 143.036C53.2219 143.245 53.0122 143.542 52.6802 143.892C52.3657 144.259 52.156 144.538 52.0337 144.748V144.835L51.9987 144.888C51.8939 145.01 51.8065 145.115 51.7191 145.185C51.6317 145.272 51.5618 145.342 51.5094 145.395C51.2822 145.499 51.125 145.587 50.9852 145.639C50.8454 145.709 50.7755 145.727 50.758 145.727C50.3561 145.779 50.0415 145.692 49.7969 145.465C49.5522 145.237 49.3949 144.853 49.3251 144.346C49.4648 144.067 49.5872 143.769 49.7095 143.455C49.7969 143.263 49.8842 143.088 49.9716 142.948C50.059 142.791 50.1114 142.686 50.1639 142.581C50.1988 142.459 50.2338 142.371 50.2512 142.284C50.2687 142.197 50.3036 142.127 50.3211 142.074C50.3735 141.952 50.4259 141.847 50.4784 141.76C50.5133 141.672 50.5658 141.603 50.5832 141.533C50.6357 141.41 50.6706 141.288 50.6881 141.201C50.7056 141.113 50.723 141.026 50.7405 140.956C50.7754 140.851 50.8279 140.764 50.8628 140.676C50.8978 140.589 50.9327 140.519 50.9677 140.467C51.0201 140.257 51.055 140.047 51.09 139.855C51.1075 139.68 51.1424 139.523 51.1599 139.383C51.2123 139.226 51.2473 139.104 51.2647 138.981C51.2822 138.859 51.3172 138.772 51.3172 138.702L51.2997 138.597C51.3172 138.544 51.3172 138.492 51.3172 138.457C51.2997 138.335 51.3172 138.177 51.3521 138.003C51.3871 137.828 51.3871 137.706 51.3871 137.601C51.3871 137.513 51.3696 137.374 51.3871 137.199C51.3871 137.024 51.3871 136.884 51.3696 136.797C51.3172 136.465 51.2473 136.255 51.1075 136.15C50.9677 136.046 50.758 136.011 50.4609 136.063C50.3036 136.08 50.1464 136.22 49.9891 136.447C49.8318 136.675 49.6396 137.024 49.4649 137.478C49.3251 137.811 49.2027 138.143 49.0979 138.457C48.993 138.772 48.9231 139.086 48.8532 139.366C48.8008 139.541 48.7659 139.698 48.7134 139.82C48.6785 139.96 48.6435 140.082 48.5911 140.17C48.5037 140.676 48.4164 141.148 48.3639 141.585C48.294 142.022 48.2416 142.424 48.2416 142.791L48.3115 142.931C48.2765 143.001 48.2591 143.175 48.2591 143.455C48.2416 143.734 48.2591 143.944 48.2591 144.067C48.294 144.101 48.294 144.154 48.3115 144.224C48.3115 144.276 48.329 144.311 48.329 144.346C48.329 144.364 48.3115 144.399 48.294 144.416L47.8397 144.958C47.7698 145.045 47.7173 145.15 47.6824 145.237C47.6474 145.325 47.6125 145.395 47.5776 145.447C47.5251 145.499 47.4727 145.552 47.4378 145.587C47.4028 145.622 47.3504 145.639 47.3154 145.639C47.2805 145.639 47.2455 145.639 47.2106 145.604C47.1756 145.587 47.1407 145.534 47.1232 145.482C47.1581 145.412 47.2106 145.342 47.263 145.22C47.3154 145.098 47.3504 144.975 47.3679 144.8C47.4028 144.643 47.4203 144.503 47.4203 144.399C47.4377 144.259 47.4203 144.171 47.4203 144.067C47.3504 143.595 47.2106 143.263 46.9834 143.053C46.7562 142.843 46.4592 142.773 46.0747 142.826C46.0398 142.826 45.9524 142.861 45.8301 142.913C45.7078 142.983 45.5155 143.07 45.3058 143.193L45.2359 143.123C45.2883 143.001 45.3233 142.861 45.3583 142.738C45.3408 142.686 45.3058 142.651 45.2359 142.634C45.1835 142.616 45.0961 142.616 44.9738 142.634C44.8689 142.651 44.7816 142.686 44.6942 142.738C44.6068 142.791 44.5369 142.861 44.4495 142.948C44.3971 143.036 44.3272 143.123 44.2748 143.21C44.2224 143.298 44.1525 143.385 44.0826 143.472C44.0302 143.542 43.9603 143.612 43.9078 143.682C43.8379 143.752 43.768 143.822 43.7156 143.909C43.6282 143.997 43.5758 144.084 43.5234 144.171C43.471 144.259 43.436 144.329 43.4185 144.399C43.4011 144.416 43.3836 144.433 43.3486 144.468C43.3836 144.381 43.4011 144.311 43.4185 144.224C43.5234 143.804 43.5408 143.298 43.4535 142.721C43.401 142.406 43.3312 142.109 43.2438 141.865C43.1564 141.603 43.0516 141.358 42.9118 141.148C42.8069 140.956 42.6497 140.764 42.4749 140.572C42.2827 140.362 42.0555 140.152 41.7934 139.907C41.7584 139.873 41.706 139.838 41.671 139.785C41.6361 139.75 41.6011 139.733 41.5837 139.715C41.4089 139.593 41.2516 139.488 41.1468 139.401C41.0419 139.313 40.9721 139.261 40.9371 139.208C40.675 139.086 40.5002 138.981 40.3779 138.876C40.2556 138.772 39.976 138.649 39.5216 138.51C39.3644 138.457 39.2071 138.422 39.0498 138.37C38.8925 138.317 38.7527 138.282 38.5954 138.23L38.3508 138.265C38.2984 138.23 38.1935 138.195 38.0712 138.16C37.9139 138.177 37.6868 138.387 37.4072 138.772C37.1101 139.156 36.9703 139.418 37.0053 139.575C37.0053 139.61 37.0402 139.68 37.1101 139.768C37.18 139.855 37.3023 139.977 37.4421 140.135C37.5819 140.309 37.7043 140.449 37.7916 140.572C37.879 140.676 37.9489 140.781 37.9838 140.851L37.879 143.42L37.9664 143.7C37.9489 143.874 37.9489 144.049 37.9314 144.189C37.9314 144.329 37.9139 144.451 37.9139 144.521C37.9314 144.818 37.9314 145.045 37.9489 145.202C37.9489 145.36 37.9489 145.465 37.9489 145.499C37.9314 145.814 37.9314 146.129 37.9139 146.443C37.9139 146.496 37.9489 146.583 37.9838 146.688C38.0188 146.793 38.0363 146.88 38.0538 146.932C38.0887 147.142 37.9664 147.317 37.7392 147.474C37.4945 147.631 37.3897 147.736 37.3897 147.806C37.3897 147.859 37.4246 147.911 37.4771 147.963C37.5295 147.998 37.5994 148.033 37.7043 148.068C37.7742 148.103 37.844 148.138 37.9139 148.156C37.9838 148.191 38.0537 148.208 38.1236 148.226L38.2285 148.68C38.1936 148.942 38.1761 149.169 38.1586 149.344C38.1411 149.519 38.1411 149.676 38.1586 149.781C38.211 150.148 38.2809 150.899 38.3858 151.074C38.4906 151.249 38.6304 151.319 38.8052 151.301C38.8926 151.284 38.9799 151.231 39.0673 151.144C39.1547 151.056 39.242 150.934 39.3119 150.777C39.3818 150.637 39.4343 150.532 39.4867 150.427C39.5391 150.323 39.5741 149.711 39.609 149.606C39.4692 149.484 39.3818 149.361 39.2944 149.257C39.2245 149.152 39.1721 149.047 39.1721 148.959C39.1547 148.715 39.1372 148.453 39.1197 148.191C39.0847 147.789 39.0847 147.579 39.1197 147.544C39.1546 147.527 39.242 147.492 39.3993 147.474C39.4517 147.474 39.5216 147.439 39.609 147.369C39.6964 147.317 39.8187 147.247 39.941 147.16C40.4129 146.88 40.8497 146.635 41.2691 146.408C41.4788 146.286 41.6536 146.181 41.8109 146.094C41.5487 146.496 42.1953 146.74 42.7894 146.251C42.8943 146.163 42.9292 146.111 42.9642 146.111C43.0166 146.111 43.0516 146.111 43.069 146.129C43.0865 146.146 43.1215 146.181 43.1215 146.216C43.1215 146.251 43.104 146.391 43.0865 146.6C43.0516 146.81 43.0516 146.985 43.069 147.125C43.104 147.439 43.2613 147.684 43.5408 147.911C43.8204 148.138 44.1001 148.208 44.3971 148.173C44.4496 148.156 44.502 148.138 44.5719 148.121C44.6593 148.086 44.6942 148.068 44.7291 148.068C44.8165 148.051 44.9039 148.033 45.0088 147.981C45.1136 147.928 45.2185 147.859 45.3583 147.771C45.568 147.649 45.7601 147.509 45.9349 147.334C46.0922 147.16 46.232 146.985 46.3368 146.793C46.3893 146.897 46.4766 146.967 46.564 147.02C46.6514 147.055 46.7562 147.09 46.8786 147.055C46.9834 147.037 47.0883 147.002 47.1931 146.95C47.2805 146.88 47.4028 146.793 47.5076 146.688C47.595 146.6 47.6824 146.513 47.7523 146.426C47.8397 146.338 47.9096 146.233 47.9969 146.146C48.1193 146.006 48.2067 145.901 48.2766 145.779C48.3465 145.674 48.4163 145.587 48.4862 145.499C48.5387 145.534 48.5736 145.569 48.6086 145.604C48.6435 145.639 48.661 145.674 48.6785 145.727C48.8183 146.181 48.993 146.53 49.2202 146.723C49.4474 146.932 49.7095 147.02 50.0066 146.985C50.0939 146.967 50.2337 146.967 50.4085 146.967C50.5832 146.95 50.7055 146.95 50.7929 146.932C50.9502 146.915 51.1075 146.845 51.2822 146.758C51.4395 146.67 51.5968 146.53 51.7366 146.373C51.8589 146.233 51.9812 146.094 52.1035 145.954C52.2259 145.797 52.3482 145.674 52.4705 145.517H52.453C52.6278 145.272 52.7676 145.08 52.9074 144.94C53.0472 144.8 53.1346 144.731 53.222 144.731C53.2569 144.731 53.2918 144.748 53.3617 144.8C53.4141 144.853 53.4841 144.94 53.554 145.045C53.6239 145.115 53.6763 145.167 53.7287 145.237C53.7811 145.29 53.8161 145.342 53.851 145.377C54.0957 145.849 54.2879 146.146 54.4452 146.233C54.6025 146.321 54.917 146.338 55.4063 146.268C55.4937 146.251 55.5985 146.216 55.7383 146.111C55.8781 146.006 56.0529 145.866 56.2451 145.692C56.4198 145.517 56.5771 145.377 56.6994 145.255C56.8218 145.132 56.9266 145.01 56.9965 144.923C57.0315 144.835 57.0839 144.766 57.1014 144.713C57.1363 144.661 57.1538 144.626 57.1713 144.591C57.4159 144.276 57.6431 143.979 57.8877 143.7C58.045 143.525 58.1673 143.35 58.2722 143.193C58.377 143.035 58.4644 142.896 58.5168 142.756L58.5867 142.703C58.6392 142.721 58.6566 142.738 58.6741 142.773C58.6217 142.931 58.5867 143.07 58.5518 143.193C58.5518 143.402 58.5518 143.612 58.5343 143.822C58.5343 143.944 58.5343 144.049 58.5343 144.154C58.5343 144.241 58.5343 144.311 58.5343 144.364C58.5168 144.399 58.5168 144.433 58.4994 144.486C58.4644 144.626 58.4644 144.818 58.4644 145.045C58.4819 145.272 58.4994 145.534 58.5518 145.831C58.5867 146.111 58.6741 146.303 58.8139 146.426C58.9362 146.548 59.1284 146.6 59.3556 146.565C59.4605 146.548 59.5653 146.513 59.6877 146.426C59.7925 146.356 59.9148 146.233 60.0197 146.076C60.0896 145.971 60.177 145.849 60.2469 145.727C60.3168 145.604 60.4041 145.482 60.4915 145.377C60.5789 145.272 60.6487 145.167 60.7012 145.098C60.7711 145.01 60.8235 144.94 60.8759 144.87C60.9982 144.766 61.1031 144.661 61.1905 144.573C61.2779 144.486 61.3303 144.416 61.3827 144.329V144.311C61.4351 144.241 61.4876 144.171 61.5225 144.119C61.575 144.067 61.6099 144.049 61.6623 144.049C61.7147 144.032 61.7672 144.067 61.8196 144.119C61.872 144.171 61.9244 144.241 61.9943 144.346C62.0817 144.486 62.1341 144.591 62.204 144.696C62.2739 144.8 62.3264 144.853 62.3963 144.905C62.5011 144.993 62.6409 145.063 62.8157 145.098C62.9729 145.132 63.1477 145.132 63.3399 145.115C63.4797 145.098 63.6195 145.063 63.7243 145.028C63.8292 144.993 63.9166 144.94 63.9865 144.888C64.1962 144.853 64.4058 144.748 64.633 144.573C64.8602 144.381 65.1049 144.136 65.367 143.787C65.4369 143.665 65.4718 143.577 65.4893 143.542C65.5068 143.49 65.5243 143.472 65.5417 143.455C65.6641 143.263 65.7689 143.105 65.8563 142.983C65.9436 142.861 66.0135 142.738 66.0834 142.634L66.1534 142.703C66.1708 142.791 66.1708 142.878 66.1534 143.001C66.1534 143.123 66.1359 143.245 66.1184 143.402C66.066 143.734 66.031 144.032 66.031 144.329C66.031 144.608 66.0485 144.888 66.0834 145.132C66.1184 145.377 66.1883 145.552 66.3281 145.674C66.433 145.779 66.6077 145.814 66.8174 145.797C66.9572 145.779 67.062 145.709 67.1319 145.604C67.2193 145.482 67.2892 145.377 67.3416 145.272C67.3941 145.185 67.464 145.115 67.5164 145.063C67.5688 145.01 67.6038 144.958 67.6212 144.905C67.7086 144.783 67.7785 144.661 67.8484 144.521C67.9183 144.399 68.0057 144.276 68.0756 144.154C68.1979 143.962 68.3377 143.752 68.5125 143.542C68.53 143.542 68.7571 143.665 69.1765 143.944C69.5959 144.206 69.893 144.329 70.0502 144.311C70.2075 144.294 70.3473 144.241 70.4871 144.154C70.6269 144.067 70.7667 143.927 70.9065 143.752C71.0289 143.63 71.1337 143.49 71.2385 143.35C71.3434 143.21 71.4657 143.07 71.5706 142.931L71.5531 142.913C71.588 142.861 71.623 142.808 71.623 142.773C71.6404 142.738 71.658 142.703 71.658 142.669C71.7453 142.564 71.8152 142.494 71.8676 142.406C71.9201 142.336 71.9725 142.267 72.0249 142.232C72.0599 142.197 72.1123 142.144 72.1822 142.039C72.2696 141.935 72.3569 141.795 72.4967 141.62C72.6016 141.463 72.6889 141.358 72.7588 141.288C72.8287 141.201 72.8987 141.166 72.9511 141.166C73.0035 141.166 73.0559 141.166 73.0734 141.183C73.1083 141.201 73.1258 141.218 73.1258 141.271C73.1433 141.305 73.1433 141.34 73.1258 141.393C73.1258 141.445 73.1083 141.515 73.1083 141.585C73.0909 141.655 73.0734 141.725 73.0734 141.76C73.0559 141.812 73.056 141.847 73.056 141.865C72.986 142.319 72.9336 142.738 72.8637 143.07C72.8113 143.402 72.7589 143.7 72.7065 143.927C72.7414 144.067 72.7763 144.224 72.8288 144.364C72.8637 144.503 72.986 144.556 73.1957 144.538C73.3006 144.521 73.4054 144.503 73.4753 144.468C73.5627 144.433 73.6326 144.381 73.685 144.311C73.7374 144.241 73.8073 144.171 73.8598 144.101C73.9122 144.014 73.9821 143.944 74.0345 143.874C74.2617 143.56 74.4539 143.298 74.5937 143.07C74.751 142.843 74.8558 142.669 74.9083 142.529C74.9257 142.459 74.9956 142.389 75.083 142.319C75.1879 142.249 75.3277 142.092 75.5374 141.865C75.6422 141.742 75.7296 141.655 75.8169 141.568C75.9043 141.498 75.9917 141.428 76.0966 141.393L76.1664 141.41C76.3062 141.55 76.4286 141.655 76.5334 141.76C76.6383 141.865 76.7257 141.935 76.813 142.004C76.9179 142.162 77.0052 142.284 77.0926 142.406C77.1625 142.494 77.2324 142.564 77.2849 142.599C77.3722 142.703 77.4771 142.756 77.5994 142.808C77.7217 142.843 77.8266 142.843 77.9664 142.826C78.0712 142.808 78.1761 142.773 78.2634 142.721C78.3683 142.669 78.4731 142.564 78.578 142.441C78.6654 142.354 78.7353 142.267 78.8227 142.179C78.91 142.092 78.9799 142.004 79.0673 141.917C79.242 141.672 79.3819 141.463 79.5217 141.34C79.644 141.201 79.7488 141.131 79.8362 141.113C79.8711 141.113 79.9061 141.131 79.976 141.183C80.0284 141.236 80.0983 141.323 80.1857 141.428C80.2381 141.498 80.308 141.55 80.3604 141.62C80.4128 141.672 80.4478 141.707 80.4828 141.76C80.7274 142.249 80.9196 142.529 81.0769 142.616C81.2342 142.703 81.5487 142.721 82.038 142.651C82.1079 142.634 82.2302 142.581 82.37 142.476C82.5098 142.371 82.6846 142.249 82.8768 142.057C83.0516 141.882 83.2088 141.742 83.3311 141.62C83.4535 141.498 83.5583 141.375 83.6283 141.288C83.6981 141.166 83.7331 141.078 83.7506 141.043C83.768 141.008 83.7855 140.973 83.803 140.939C83.9078 140.746 84.0301 140.606 84.1175 140.467C84.2049 140.344 84.2923 140.222 84.3447 140.135L84.3971 140.205C84.4146 140.274 84.4146 140.379 84.3971 140.502C84.3971 140.624 84.3797 140.746 84.3622 140.904C84.3098 141.218 84.2748 141.533 84.2748 141.83C84.2748 142.109 84.2748 142.389 84.3272 142.651C84.3622 142.896 84.4321 143.07 84.5544 143.175C84.6767 143.28 84.834 143.315 85.0612 143.28C85.201 143.263 85.3058 143.21 85.3757 143.088C85.4456 142.983 85.533 142.861 85.5854 142.756C85.6379 142.669 85.7078 142.599 85.7602 142.546C85.8126 142.494 85.8475 142.441 85.865 142.389C85.9524 142.267 86.0223 142.144 86.0922 142.022C86.1621 141.9 86.232 141.777 86.3194 141.655C86.4417 141.445 86.5815 141.253 86.7562 141.043C86.7912 141.026 87.0009 141.166 87.4203 141.445C87.8397 141.725 88.1193 141.847 88.294 141.83C88.4513 141.795 88.5911 141.742 88.7309 141.655C88.8707 141.568 89.0105 141.445 89.1503 141.271C89.2726 141.131 89.3775 140.991 89.4823 140.851C89.5872 140.711 89.7095 140.572 89.8143 140.432C89.7794 140.327 90.6532 139.069 90.3561 138.929ZM41.5662 145.045C41.5138 145.115 41.4089 145.202 41.3041 145.325C41.2167 145.412 41.1468 145.482 41.0769 145.534C41.007 145.604 40.9371 145.657 40.8847 145.692C40.7449 145.779 40.6226 145.866 40.5002 145.936C40.3779 146.006 40.2556 146.111 40.1158 146.198C39.9236 146.338 39.7488 146.443 39.6265 146.513C39.5042 146.583 39.3993 146.618 39.3469 146.618C39.3119 146.618 39.277 146.618 39.2421 146.583C39.2071 146.565 39.1896 146.513 39.1896 146.461C39.1547 146.233 39.1547 145.919 39.1721 145.534C39.1896 145.15 39.2245 144.678 39.2944 144.119L39.1896 143.804C39.242 143.647 39.312 143.193 39.4168 142.441C39.5217 141.69 39.5566 141.271 39.5391 141.166C39.5042 140.851 39.1197 140.432 38.4207 139.873C38.4207 139.838 38.4207 139.803 38.4382 139.803C38.4557 139.785 38.4731 139.768 38.5081 139.768C38.7003 139.82 38.8576 139.89 38.9974 139.925C39.1547 139.977 39.277 139.995 39.3818 140.03C39.4517 140.082 39.5042 140.135 39.5741 140.17C39.6265 140.222 39.6964 140.257 39.7313 140.274C40.1507 140.537 40.4827 140.781 40.7449 140.991C40.9895 141.201 41.1818 141.393 41.2866 141.533C41.3216 141.603 41.374 141.672 41.4264 141.725C41.4614 141.76 41.5138 141.812 41.5487 141.83C41.5837 141.865 41.6186 141.9 41.6536 141.935C41.6885 141.952 41.706 141.987 41.706 142.022L41.7584 142.214C41.8807 142.406 41.9681 142.616 42.038 142.808C42.1079 143.001 42.1603 143.193 42.1953 143.385C42.2302 143.717 42.2303 143.997 42.1254 144.259C42.038 144.503 41.8982 144.731 41.6885 144.923C41.6711 144.94 41.6186 144.975 41.5662 145.045ZM46.3019 145.272C46.3019 145.377 46.2844 145.482 46.2669 145.552C46.2495 145.622 46.232 145.674 46.1796 145.709C46.1271 145.814 46.0572 145.919 45.9873 146.024C45.8475 146.321 45.6728 146.548 45.498 146.705C45.3058 146.862 45.0961 146.967 44.8515 147.002C44.6942 147.02 44.5893 147.002 44.502 146.932C44.4146 146.862 44.3622 146.758 44.3447 146.618C44.3272 146.53 44.3272 146.443 44.3447 146.321C44.3622 146.198 44.3796 146.059 44.4146 145.884C44.4495 145.692 44.4845 145.534 44.5369 145.43C44.5893 145.325 44.6243 145.272 44.6767 145.255C44.7641 145.22 44.834 145.202 44.8864 145.15C44.9388 145.115 45.0088 145.045 45.0437 144.975C45.1136 144.818 45.1835 144.678 45.2359 144.538C45.2709 144.451 45.3233 144.381 45.3583 144.329C45.4107 144.276 45.4281 144.241 45.4631 144.224C45.6378 144.224 45.7602 144.224 45.865 144.224C45.9524 144.241 46.0223 144.241 46.0398 144.259C46.0922 144.276 46.1271 144.329 46.1796 144.416C46.2495 144.503 46.3019 144.626 46.3718 144.766L46.3019 145.272ZM49.2726 142.634C49.2551 142.564 49.2726 142.424 49.2901 142.232C49.3251 142.039 49.36 141.795 49.4299 141.48C49.4998 141.271 49.5522 141.078 49.6221 140.904C49.6571 140.764 49.7095 140.641 49.727 140.537C49.7445 140.449 49.7619 140.379 49.7444 140.344C49.727 140.117 49.7619 139.855 49.8667 139.575C49.9891 139.296 50.1639 139.016 50.426 138.684L50.4784 138.702C50.4784 138.807 50.4609 138.911 50.4609 139.016C50.4434 139.121 50.4434 139.226 50.4609 139.331C50.4609 139.453 50.4085 139.785 50.2862 140.292C50.1638 140.799 50.0765 141.113 50.0066 141.236C49.9367 141.41 49.8668 141.585 49.8144 141.725C49.7445 141.865 49.692 141.97 49.6745 142.074C49.6046 142.267 49.5522 142.406 49.4998 142.511C49.4474 142.616 49.3949 142.669 49.3425 142.686L49.2726 142.634ZM62.6933 141.865C62.6584 141.935 62.6234 141.97 62.571 141.97C62.5186 141.987 62.5011 141.97 62.4836 141.97C62.4662 141.952 62.4487 141.935 62.4487 141.9C62.4312 141.76 62.5011 141.515 62.6584 141.201C62.8157 140.869 62.938 140.694 63.0603 140.676C63.0952 140.676 63.1302 140.676 63.1477 140.711C63.1651 140.746 63.1826 140.781 63.1826 140.816C63.2001 140.886 63.1826 140.973 63.1651 141.043C63.1302 141.131 63.1127 141.201 63.0428 141.288C63.0079 141.358 62.9555 141.41 62.9205 141.48C62.8681 141.55 62.8331 141.62 62.7807 141.672C62.7632 141.742 62.7283 141.795 62.6933 141.865Z" fill="#00426D"/>
<path fill-rule="evenodd" clip-rule="evenodd" d="M86.1968 78.8502C86.4415 78.2735 86.5638 77.6269 86.5638 76.9629C86.5638 74.2193 84.327 72 81.5834 72C78.8399 72 76.6206 74.2193 76.6206 76.9629C76.6206 77.0502 76.6206 77.1376 76.6381 77.225H46.5288C41.2864 77.225 37.005 81.5063 37.005 86.7313V121.052C37.005 126.277 41.2864 130.558 46.5288 130.558H80.9019C86.1269 130.558 90.4257 126.277 90.4257 121.052V86.7488C90.4257 83.4635 88.7307 80.5627 86.1968 78.8502Z" fill="#00426D"/>
<path fill-rule="evenodd" clip-rule="evenodd" d="M84.502 93.2669V103.892V114.534V125.159H78.6828V119.462L78.3333 120.51L77.8965 121.541L77.3897 122.502L76.813 123.376L76.4985 123.761L76.1664 124.11L75.45 124.669L75.0655 124.879L74.6636 125.054L74.2617 125.141L73.8423 125.159H67.9183L66.6077 115.705L69.561 115.775L70.4696 115.757L71.3783 115.705L72.287 115.512L72.7239 115.373L73.1083 115.18L73.2831 114.971L73.4229 114.709L73.5452 114.464L73.6326 114.184L73.685 113.87L73.7025 113.538L73.685 112.839L73.5627 112.105L73.353 111.353L73.1083 110.585L72.8113 109.851L69.4037 103.07L72.0773 97.9153L72.4443 97.0765L72.7414 96.3425L72.9336 95.6785L73.0734 95.0843L73.1083 94.5426L73.0909 94.0883L73.021 93.6863L72.8812 93.3368L72.6889 93.0398L72.4443 92.7951L72.1472 92.6029L71.7977 92.4456L71.4308 92.3233L71.0288 92.2534L70.5745 92.201H70.1027H67.7435L67.8309 93.7562L67.8484 95.329L67.796 96.9017L67.6562 98.4745L67.4814 100.012L67.2368 101.515L66.9397 102.931L66.765 103.595L66.6077 104.241L66.398 104.923L66.1359 105.604L65.5417 107.037L65.1922 107.789L64.8252 108.54L63.9515 110.06L63.4971 110.847L63.0079 111.616L61.9419 113.171L60.8235 114.691L60.2293 115.443L59.6527 116.194V125.159H54.917V120.091L53.886 125.159H42.9292V114.534V103.892V93.2669V82.6422H48.7484L48.7134 99.1909L48.6959 115.775H54.917V104.835V93.9135H59.6527V105.045L60.1245 104.241L60.6837 103.263L61.2429 102.179L61.7846 101.008L62.2739 99.7851L62.6758 98.5444L62.8506 97.9153L62.9554 97.3211L63.0253 96.7095L63.0603 96.1503L63.0079 94.8572L62.8506 93.931L62.7108 93.6164L62.571 93.3543L62.3963 93.1446L62.204 93.0048L61.7322 92.865L61.173 92.8301L59.7925 92.8825H53.5889L54.917 82.6946H61.1206L61.7147 82.7121L62.3089 82.817L62.8156 82.9568L63.3399 83.1665L63.8117 83.4286L64.2486 83.7257L64.6854 84.0752L65.0524 84.4771L65.4369 84.8965L65.7514 85.4032L66.3281 86.4517L66.5902 87.0459L66.8174 87.6575L67.0271 88.2866L67.1844 88.9681L68.0581 82.6422H72.8986L73.4753 82.6772L74.0171 82.817L74.5063 83.0092L74.9956 83.2538L75.4674 83.6033L75.8869 84.0053L76.2888 84.4771L76.6383 85.0013L76.9878 85.5605L77.2848 86.1721L77.5295 86.8537L77.7392 87.5527L77.9139 88.2866L78.0363 89.0555L78.1236 89.8593L78.1411 90.6807L78.1062 92.5505L77.9838 94.1931L77.7742 95.6959L77.6518 96.4299L77.512 97.1114L77.1625 98.4745L76.7606 99.8375L75.782 102.773L76.4111 104.241L77.18 106.146L77.9838 108.4L78.3683 109.623L78.6828 110.899V96.7619V82.6422H84.502V93.2669Z" fill="white"/>
<path fill-rule="evenodd" clip-rule="evenodd" d="M81.5837 81.1919C79.2595 81.1919 77.3547 79.2871 77.3547 76.9629C77.3547 74.6388 79.2595 72.734 81.5837 72.734C83.9078 72.734 85.8126 74.6388 85.8126 76.9629C85.8301 79.2871 83.9253 81.1919 81.5837 81.1919Z" fill="#ED1C24"/>
<path d="M54.4452 138.16C54.585 138.142 54.6723 138.16 54.7422 138.195C54.8121 138.247 54.8471 138.317 54.8646 138.404C54.8471 138.562 54.8471 138.684 54.8296 138.789C54.8121 138.981 54.7772 139.156 54.7597 139.278C54.7247 139.401 54.7073 139.488 54.7073 139.54C54.6724 139.663 54.6199 139.767 54.5675 139.872C54.4976 139.977 54.4102 140.065 54.3054 140.152C54.2005 140.239 54.0957 140.327 54.0258 140.362C53.9559 140.397 53.9035 140.432 53.8685 140.432C53.7811 140.432 53.6938 140.432 53.6064 140.432C53.5365 140.432 53.4491 140.449 53.3617 140.466C53.2918 140.432 53.2219 140.362 53.1695 140.274C53.0996 140.169 53.0821 140.03 53.0472 139.855C53.0297 139.698 53.0996 139.488 53.2569 139.226C53.4142 138.964 53.5714 138.806 53.7112 138.771C53.7811 138.649 53.8685 138.509 53.9733 138.352C54.0258 138.317 54.0782 138.265 54.1656 138.23C54.2529 138.195 54.3403 138.16 54.4452 138.16Z" fill="#ED1C24"/>
<path d="M81.042 134.473C81.1818 134.455 81.2691 134.473 81.339 134.508C81.4089 134.56 81.4439 134.63 81.4613 134.735C81.4439 134.892 81.4439 135.014 81.4439 135.102C81.4089 135.294 81.3915 135.451 81.3565 135.591C81.339 135.713 81.3216 135.801 81.3041 135.853C81.2691 135.976 81.2167 136.098 81.1643 136.185C81.0944 136.273 81.007 136.377 80.9022 136.465C80.7973 136.57 80.7099 136.64 80.6225 136.675C80.5352 136.709 80.4828 136.744 80.4653 136.744C80.3779 136.744 80.2905 136.744 80.2032 136.762C80.1158 136.762 80.0459 136.779 79.9585 136.779C79.8886 136.744 79.8187 136.692 79.7663 136.587C79.7139 136.482 79.6614 136.342 79.644 136.168C79.6265 136.01 79.6964 135.801 79.8537 135.539C80.0109 135.277 80.1508 135.119 80.308 135.084C80.3779 134.962 80.4653 134.822 80.5702 134.665C80.6226 134.63 80.675 134.578 80.7624 134.543C80.8322 134.508 80.9371 134.49 81.042 134.473Z" fill="#ED1C24"/>
<path d="M104.074 72H103.462V152H104.074V72Z" fill="#00426D"/>
<path d="M124.624 125.753L120.692 121.227H120.063V125.753H117.11V113.73H120.063V118.501H120.5L124.589 113.73H128.137L123.034 119.759L128.504 125.753H124.624Z" fill="#00426D"/>
<path d="M137.661 125.753L136.822 123.568H131.754L130.915 125.753H127.735L132.768 113.73H135.808L140.841 125.753H137.661ZM134.288 117.068L132.768 121.017H135.843L134.288 117.068Z" fill="#00426D"/>
<path d="M154.996 125.753H152.13V119.759L148.984 125.753H147.167L144.004 119.724V125.753H141.138V113.73H144.039L148.076 121.174L152.112 113.73H154.996V125.753Z" fill="#00426D"/>
<path d="M162.283 113.73C163.628 113.73 164.712 114.114 165.498 114.866C166.302 115.617 166.686 116.631 166.686 117.872C166.686 119.147 166.284 120.161 165.463 120.93C164.642 121.699 163.541 122.083 162.143 122.083H159.312V125.77H156.359V113.747H162.283V113.73ZM161.951 119.602C162.527 119.602 162.982 119.444 163.314 119.147C163.646 118.833 163.803 118.431 163.803 117.924C163.803 117.435 163.628 117.033 163.296 116.736C162.964 116.439 162.51 116.281 161.951 116.281H159.329V119.619H161.951V119.602Z" fill="#00426D"/>
<path d="M178.307 120.335C178.307 122.065 177.818 123.429 176.839 124.477C175.861 125.508 174.567 126.032 172.977 126.032C171.335 126.032 170.024 125.508 169.028 124.477C168.032 123.446 167.525 122.065 167.525 120.335V113.73H170.478V120.335C170.478 121.244 170.706 121.961 171.16 122.502C171.614 123.027 172.226 123.306 172.977 123.306C173.694 123.306 174.27 123.044 174.707 122.502C175.144 121.978 175.354 121.244 175.354 120.335V113.73H178.307V120.335Z" fill="#00426D"/>
<path d="M187.656 114.377C188.547 114.988 189.107 115.844 189.334 116.928L186.433 117.522C186.328 116.98 186.066 116.561 185.682 116.281C185.28 115.984 184.843 115.845 184.336 115.845C183.864 115.845 183.462 115.967 183.165 116.194C182.868 116.421 182.711 116.718 182.711 117.068C182.711 117.592 183.043 117.924 183.689 118.081L186.188 118.64C188.39 119.13 189.491 120.301 189.491 122.135C189.491 123.376 189.019 124.32 188.076 125.001C187.132 125.683 185.944 126.032 184.546 126.032C183.148 126.032 181.959 125.718 180.981 125.071C180.002 124.425 179.443 123.533 179.286 122.38L182.344 121.786C182.623 122.974 183.427 123.568 184.72 123.568C185.28 123.568 185.699 123.446 186.014 123.219C186.328 122.992 186.485 122.695 186.485 122.328C186.485 122.048 186.398 121.821 186.241 121.646C186.083 121.471 185.786 121.349 185.367 121.262L182.851 120.72C180.701 120.231 179.618 119.06 179.618 117.242C179.618 116.089 180.055 115.163 180.928 114.481C181.802 113.8 182.955 113.45 184.371 113.45C185.664 113.468 186.765 113.765 187.656 114.377Z" fill="#00426D"/>
<path d="M200.098 116.316V125.753H197.162V116.316H193.266V113.73H203.995V116.316H200.098Z" fill="#00426D"/>
<path d="M212.313 125.753L211.474 123.568H206.407L205.568 125.753H202.388L207.42 113.73H210.461L215.494 125.753H212.313ZM208.941 117.068L207.42 121.017H210.496L208.941 117.068Z" fill="#00426D"/>
<path d="M223.497 114.377C224.388 114.988 224.948 115.844 225.175 116.928L222.274 117.522C222.169 116.98 221.907 116.561 221.523 116.281C221.121 115.984 220.684 115.845 220.177 115.845C219.705 115.845 219.303 115.967 219.006 116.194C218.709 116.421 218.552 116.718 218.552 117.068C218.552 117.592 218.884 117.924 219.53 118.081L222.029 118.64C224.231 119.13 225.332 120.301 225.332 122.135C225.332 123.376 224.86 124.32 223.917 125.001C222.973 125.683 221.785 126.032 220.387 126.032C218.989 126.032 217.8 125.718 216.822 125.071C215.843 124.425 215.284 123.533 215.127 122.38L218.185 121.786C218.464 122.974 219.268 123.568 220.561 123.568C221.121 123.568 221.54 123.446 221.855 123.219C222.169 122.992 222.326 122.695 222.326 122.328C222.326 122.048 222.239 121.821 222.082 121.646C221.924 121.471 221.627 121.349 221.208 121.262L218.692 120.72C216.542 120.231 215.459 119.06 215.459 117.242C215.459 116.089 215.896 115.163 216.769 114.481C217.643 113.8 218.796 113.45 220.212 113.45C221.523 113.468 222.623 113.765 223.497 114.377Z" fill="#00426D"/>
<path d="M229.299 113.73H226.346V125.753H229.299V113.73Z" fill="#00426D"/>
<path d="M238.194 125.753L234.262 121.227H233.633V125.753H230.679V113.73H233.633V118.501H234.069L238.159 113.73H241.706L236.603 119.759L242.073 125.753H238.194Z" fill="#00426D"/>
<path d="M256.21 125.753H253.344V119.759L250.199 125.753H248.364L245.201 119.724V125.753H242.335V113.73H245.253L249.29 121.174L253.327 113.73H256.21V125.753Z" fill="#00426D"/>
<path d="M266.45 125.753L265.612 123.568H260.544L259.705 125.753H256.525L261.557 113.73H264.598L269.631 125.753H266.45ZM263.078 117.068L261.557 121.017H264.633L263.078 117.068Z" fill="#00426D"/>
<path d="M278.823 125.753H269.928V113.73H272.899V123.166H278.823V125.753Z" fill="#00426D"/>
<path d="M288.626 125.753L287.787 123.568H282.72L281.881 125.753H278.7L283.733 113.73H286.774L291.806 125.753H288.626ZM285.253 117.068L283.733 121.017H286.809L285.253 117.068Z" fill="#00426D"/>
<path d="M296.874 125.753H293.869V122.013L289.22 113.73H292.453L295.406 119.007L298.342 113.73H301.645L296.874 121.978V125.753Z" fill="#00426D"/>
<path d="M309.002 125.753L308.163 123.568H303.095L302.256 125.753H299.076L304.109 113.73H307.149L312.182 125.753H309.002ZM305.612 117.068L304.091 121.017H307.167L305.612 117.068Z" fill="#00426D"/>
</svg>
