<svg width="79" height="117" viewBox="0 0 79 117" fill="none" xmlns="http://www.w3.org/2000/svg">
<path d="M25.7316 97.5858C25.9378 97.56 26.0666 97.5858 26.1697 97.6373C26.2728 97.7147 26.3244 97.8178 26.3501 97.9467C26.3244 98.1786 26.3244 98.3591 26.2986 98.5137C26.2728 98.7973 26.2212 99.055 26.1955 99.2354C26.1439 99.4159 26.1182 99.5447 26.1182 99.6221C26.0666 99.8025 25.9893 99.9571 25.912 100.112C25.8089 100.266 25.68 100.395 25.5253 100.524C25.3707 100.653 25.216 100.782 25.1129 100.834C25.0098 100.885 24.9325 100.937 24.8809 100.937C24.7521 100.937 24.6232 100.937 24.4943 100.937C24.3912 100.937 24.2623 100.962 24.1334 100.988C24.0303 100.937 23.9273 100.834 23.8499 100.705C23.7468 100.55 23.7211 100.344 23.6695 100.086C23.6437 99.854 23.7468 99.5447 23.9788 99.1581C24.2108 98.7715 24.4427 98.5395 24.6489 98.4879C24.752 98.3075 24.8809 98.1013 25.0356 97.8693C25.1129 97.8178 25.1902 97.7405 25.3191 97.6889C25.448 97.6374 25.5769 97.5858 25.7316 97.5858Z" fill="#ED1C24"/>
<path d="M64.9618 92.1473C65.168 92.1215 65.2968 92.1473 65.3999 92.1989C65.503 92.2762 65.5546 92.3793 65.5804 92.534C65.5546 92.7659 65.5546 92.9464 65.5546 93.0752C65.5031 93.3588 65.4773 93.5907 65.4257 93.7969C65.4 93.9774 65.3742 94.1062 65.3484 94.1836C65.2969 94.364 65.2195 94.5444 65.1422 94.6733C65.0391 94.8022 64.9102 94.9568 64.7556 95.0857C64.6009 95.2404 64.472 95.3435 64.3431 95.395C64.2143 95.4466 64.1369 95.4981 64.1112 95.4981C63.9823 95.4981 63.8534 95.4981 63.7245 95.5239C63.5957 95.5239 63.4926 95.5497 63.3637 95.5497C63.2606 95.4981 63.1575 95.4208 63.0802 95.2661C63.0028 95.1115 62.9255 94.9053 62.8997 94.6475C62.874 94.4156 62.9771 94.1062 63.209 93.7196C63.441 93.333 63.6472 93.101 63.8792 93.0495C63.9823 92.869 64.1112 92.6628 64.2659 92.4308C64.3432 92.3793 64.4205 92.302 64.5493 92.2504C64.6524 92.1989 64.8071 92.1731 64.9618 92.1473Z" fill="#ED1C24"/>
<path d="M78.7002 98.7201C78.2878 98.5138 77.5403 99.4418 77.231 99.7768C77.1279 99.8799 77.0248 99.9573 76.9475 100.086C76.8701 100.189 76.767 100.292 76.6897 100.37C76.5608 100.499 76.4835 100.576 76.3804 100.653C76.2773 100.705 76.2 100.756 76.1227 100.756C75.8907 100.808 75.5814 100.627 75.1432 100.267C74.7308 99.9057 74.5246 99.5964 74.473 99.416C74.4472 99.1325 74.6792 98.4881 75.2205 97.4828C75.7618 96.5034 75.9938 95.7043 75.9165 95.0857C75.8907 94.8537 75.8134 94.6733 75.736 94.5702C75.6329 94.4671 75.504 94.4155 75.3236 94.4413C75.2463 94.4413 75.1432 94.5702 75.0143 94.8022C74.9112 95.0342 74.7308 95.3435 74.5761 95.8074C74.2668 96.6322 74.0091 97.2766 73.8029 97.7148C73.6224 98.1272 73.4936 98.3592 73.4162 98.4107C72.9523 98.5912 72.643 98.7974 72.4883 99.0294C72.3594 99.2613 72.2821 99.6222 72.2821 100.138V100.473C72.179 100.834 72.0759 101.169 71.947 101.478C71.8439 101.787 71.715 102.045 71.5862 102.303C71.5604 102.406 71.5346 102.457 71.4831 102.509C71.4315 102.561 71.3542 102.612 71.2769 102.612C71.2253 102.612 71.2253 102.612 71.1995 102.612C71.1738 102.586 71.1738 102.561 71.148 102.509C71.148 102.432 71.148 102.277 71.1737 102.019C71.1995 101.787 71.2511 101.426 71.3026 101.014C71.3799 100.55 71.4573 100.112 71.5088 99.648C71.5604 99.184 71.6377 98.7458 71.715 98.2819C71.7924 97.7148 71.8697 97.1993 71.9986 96.7611C72.1017 96.2972 72.2048 95.9363 72.3079 95.627C72.8234 94.2093 73.1842 93.0495 73.3904 92.07C73.5966 91.0905 73.674 90.3688 73.5967 89.8533C73.5193 89.3893 73.4162 89.0543 73.21 88.8223C73.0296 88.5903 72.7718 88.513 72.4625 88.5645C72.4109 88.5645 72.3337 88.5903 72.3079 88.6418C72.2563 88.6934 72.2048 88.7449 72.179 88.8223C72.0501 89.1316 71.947 89.4409 71.8439 89.776C71.7408 90.1111 71.6635 90.4719 71.612 90.8328C71.612 90.9616 71.5604 91.0647 71.5346 91.1679C71.4831 91.271 71.4573 91.3483 71.4315 91.3998C71.3799 91.5287 71.3026 91.8122 71.1995 92.1989C71.0964 92.5855 70.9676 93.0752 70.8387 93.6938C70.684 94.3382 70.5809 94.8795 70.5036 95.2661C70.4005 95.6785 70.349 95.9621 70.3232 96.1425C70.1943 96.3487 70.0654 96.6322 69.9108 96.9931C69.7819 97.354 69.6272 97.7921 69.4726 98.3076C69.3437 98.6685 69.2406 99.0036 69.1117 99.3129C68.957 99.5964 68.8024 99.8542 68.5962 100.06C68.4931 100.189 68.4158 100.318 68.3384 100.395C68.2611 100.499 68.2096 100.576 68.1838 100.679C68.158 100.782 68.1322 100.859 68.1065 100.911C68.0807 100.937 67.7971 101.272 67.694 101.375C67.5909 101.504 67.4879 101.633 67.3848 101.736C67.2301 101.89 67.1013 101.994 66.9724 102.071C66.8435 102.148 66.6888 102.174 66.56 102.2C66.4568 102.2 66.3538 102.2 66.2507 102.174C66.1733 102.148 66.096 102.122 66.0702 102.019C66.0187 101.968 65.9414 101.813 65.8125 101.504C65.6836 101.194 65.6062 100.988 65.5031 100.834C65.4516 100.576 65.3743 100.344 65.297 100.112C65.2197 99.8542 65.1423 99.648 65.0392 99.3902C64.9361 99.1325 64.7815 98.952 64.5753 98.8489C64.369 98.7458 64.1371 98.6943 63.8535 98.7458C63.7504 98.7716 63.6473 98.7974 63.57 98.8747C63.4669 98.952 63.3896 99.0294 63.338 99.184C63.1834 99.5191 62.8483 99.9315 62.3843 100.447C61.9204 100.988 61.6111 101.401 61.4307 101.736L61.4049 101.865C61.4049 101.865 61.2502 102.097 61.1471 102.148C61.0698 102.2 60.9925 102.226 60.8894 102.251C60.7605 102.277 60.6316 102.226 60.5027 102.122C60.3738 102.019 60.2708 101.865 60.1419 101.633C59.9615 101.22 59.7552 100.808 59.5232 100.37C59.3428 100.138 59.1624 99.9831 58.982 99.8799C58.7758 99.7768 58.5438 99.7511 58.3118 99.8026C58.1829 99.8026 58.054 99.8542 57.8994 99.9573C57.7447 100.06 57.5643 100.163 57.3581 100.292C57.2035 100.447 57.0488 100.576 56.92 100.705C56.7911 100.834 56.688 100.963 56.5849 101.066C56.5333 101.169 56.4818 101.246 56.456 101.298C56.4302 101.375 56.3786 101.452 56.3529 101.478C56.224 101.607 56.1209 101.736 56.0178 101.89C55.9147 102.019 55.8632 102.174 55.8116 102.303C55.657 102.483 55.528 102.638 55.3992 102.793C55.2961 102.947 55.2188 103.076 55.1672 103.205C55.1414 103.257 55.0899 103.308 55.0641 103.36C55.0383 103.411 55.0126 103.437 54.961 103.463C54.9095 103.411 54.8579 103.36 54.8579 103.308C54.8579 103.257 54.8579 103.205 54.8579 103.128C54.8579 103.05 54.8837 102.947 54.9095 102.844C54.961 102.715 54.9868 102.561 55.0383 102.38C55.2188 101.504 55.3219 100.834 55.3734 100.292C55.4508 99.7768 55.4507 99.416 55.425 99.2356C55.3734 98.9005 55.2703 98.6685 55.1157 98.4881C54.961 98.3334 54.729 98.2819 54.4713 98.3334C54.1878 98.3592 53.93 98.4623 53.698 98.6169C53.466 98.7716 53.2598 99.0036 53.0794 99.2871C52.8732 99.6222 52.667 99.8799 52.5123 100.138C52.3577 100.344 52.2288 100.55 52.1257 100.705C51.8937 101.066 51.6875 101.375 51.5071 101.633C51.3267 101.89 51.1978 102.122 51.0689 102.277C50.94 102.457 50.8112 102.612 50.7081 102.741C50.6049 102.87 50.5019 102.973 50.4503 103.05C50.3987 103.153 50.3472 103.257 50.2956 103.308C50.2441 103.385 50.2183 103.437 50.1925 103.514V103.54C50.0894 103.617 50.0121 103.72 49.9348 103.824C49.8575 103.927 49.7544 104.03 49.677 104.107C49.5482 104.236 49.4451 104.339 49.3677 104.391C49.2904 104.442 49.1873 104.494 49.11 104.494C48.878 104.545 48.5687 104.365 48.1563 104.004C47.7439 103.643 47.5119 103.36 47.4861 103.153C47.4346 102.87 47.6923 102.226 48.2336 101.22C48.7749 100.215 49.0069 99.416 48.9296 98.8231C48.9038 98.5912 48.8264 98.4107 48.7491 98.3076C48.646 98.2045 48.5172 98.153 48.3367 98.1788C48.2594 98.2045 48.1563 98.3076 48.0274 98.5396C47.8986 98.7716 47.7439 99.1067 47.5635 99.5449C47.2542 100.395 46.9964 101.014 46.8159 101.452C46.6097 101.89 46.4809 102.122 46.4293 102.148C45.9653 102.329 45.6561 102.535 45.5014 102.767C45.3468 102.999 45.2952 103.36 45.2952 103.875V104.21C45.1921 104.571 45.089 104.906 44.9601 105.215C44.857 105.525 44.7282 105.783 44.5993 106.04C44.5735 106.118 44.5477 106.221 44.4961 106.272C44.4446 106.324 44.3931 106.35 44.3157 106.375C44.29 106.375 44.2384 106.375 44.2384 106.35C44.2126 106.324 44.1869 106.298 44.1869 106.246C44.1869 106.169 44.1869 106.014 44.2127 105.757C44.2384 105.525 44.2899 105.19 44.3673 104.777C44.4446 104.339 44.4962 103.875 44.5735 103.411C44.625 102.973 44.7024 102.509 44.7797 102.071C44.8828 101.504 44.9602 100.988 45.0633 100.524C45.1664 100.086 45.2694 99.6995 45.3725 99.3902C45.8881 97.9983 46.2231 96.8127 46.4551 95.859C46.6355 94.8795 46.7128 94.132 46.6355 93.6165C46.584 93.1526 46.4551 92.8175 46.2747 92.6113C46.0943 92.3793 45.8365 92.302 45.5272 92.3535C45.4756 92.3535 45.4241 92.3793 45.3467 92.4566C45.2952 92.5082 45.2694 92.5597 45.2179 92.637C45.1148 92.9206 45.0117 93.2557 44.8828 93.565C44.7797 93.9 44.7024 94.2609 44.6508 94.6475C44.6508 94.7764 44.5993 94.8795 44.5735 94.9826C44.5219 95.0599 44.4962 95.1373 44.4704 95.1888C44.4189 95.3435 44.3415 95.6012 44.2384 96.0136C44.1353 96.4003 44.0064 96.9158 43.8776 97.5344C43.7229 98.1788 43.5941 98.6943 43.5167 99.1067C43.4394 99.5191 43.3878 99.8284 43.362 99.983C43.2332 100.189 43.1043 100.473 42.9496 100.834C42.8207 101.194 42.6661 101.633 42.5114 102.148C42.3826 102.509 42.2537 102.844 42.1248 103.153C41.9959 103.437 41.8155 103.695 41.6351 103.901C41.532 104.03 41.4547 104.133 41.3774 104.236C41.3 104.339 41.2485 104.442 41.2227 104.52C41.1969 104.623 41.1711 104.7 41.1453 104.751C41.1196 104.803 41.0938 104.829 41.0681 104.855C41.0165 104.932 40.9391 105.009 40.836 105.061C40.7587 105.112 40.7072 105.164 40.6556 105.19C40.4752 105.344 40.269 105.447 40.037 105.576C39.8051 105.679 39.5215 105.783 39.238 105.834C39.0575 105.808 38.8771 105.808 38.7483 105.783C38.5936 105.757 38.4905 105.705 38.4132 105.679C38.3101 105.628 38.2069 105.551 38.1296 105.447C38.0523 105.319 38.0008 105.19 37.975 105.035C37.9492 104.932 37.975 104.855 38.0007 104.751C38.0265 104.674 38.0781 104.597 38.1039 104.52C38.6709 103.798 39.1091 103.179 39.4184 102.638C39.7277 102.097 39.9082 101.633 39.9597 101.246L40.0112 100.859C40.037 100.653 40.0628 100.524 40.0628 100.447C40.0628 100.344 40.0885 100.318 40.1143 100.395C40.0628 100.215 40.0113 100.035 39.9597 99.9057C39.9082 99.7253 39.805 99.5706 39.7535 99.4675C39.6762 99.3387 39.5988 99.2613 39.5473 99.2098C39.4699 99.1325 39.3411 99.0809 39.2122 99.0551C39.0833 99.0294 38.9287 99.0294 38.7483 99.0551C38.6194 99.0809 38.4905 99.1067 38.3874 99.1582C38.2585 99.2098 38.1554 99.2613 38.0781 99.2871C37.975 99.3902 37.8976 99.4675 37.7945 99.5191C37.7172 99.5964 37.6141 99.6737 37.5626 99.7511C37.4079 99.9831 37.2533 100.241 37.0986 100.473C36.944 100.705 36.7893 100.937 36.6604 101.143C36.5058 101.478 36.4027 101.787 36.2996 102.071C36.2223 102.329 36.1449 102.561 36.1191 102.741C36.0676 102.921 36.0418 103.102 36.016 103.231C35.9903 103.385 35.9645 103.514 35.9645 103.643C35.9645 103.798 35.9645 103.952 35.9645 104.107V104.597C35.7583 104.803 35.6036 105.009 35.4747 105.19C35.3459 105.37 35.2428 105.576 35.1654 105.731C34.7015 106.246 34.3664 106.607 34.1087 106.891C33.8509 107.149 33.6963 107.303 33.6447 107.303C33.5674 107.329 33.5159 107.303 33.4643 107.226C33.4128 107.174 33.3869 107.071 33.3612 106.968C33.3354 106.814 33.3354 106.53 33.3354 106.143C33.3354 105.731 33.3612 105.19 33.387 104.52C33.4901 103.669 33.5674 102.921 33.6447 102.329C33.722 101.71 33.7993 101.194 33.8767 100.782C33.9024 100.627 33.9025 100.499 33.9025 100.37C33.9282 100.267 33.9282 100.138 33.9282 100.06L34.7015 99.8026C34.8046 99.7768 34.8304 99.6222 34.8562 99.3902C34.8562 99.1325 34.8304 98.7716 34.7531 98.3076C34.7273 98.1788 34.7272 98.1014 34.7015 98.0241C34.6757 97.9468 34.6241 97.921 34.5726 97.8952C34.521 97.8437 34.4695 97.8179 34.4437 97.7921C34.4179 97.7664 34.3922 97.7406 34.3664 97.7148C34.3664 97.5602 34.3922 97.3282 34.4695 97.0189C34.5468 96.7353 34.5469 96.4776 34.5469 96.2972C34.4953 96.0652 34.4179 95.9105 34.3148 95.8074C34.2117 95.7043 34.0571 95.6528 33.8767 95.7043C33.5416 95.7559 33.2581 96.1683 33.0519 96.9415C32.8714 97.7148 32.6137 98.1272 32.3559 98.1788L31.9693 98.1272C31.8404 98.153 31.7373 98.2045 31.66 98.2303C31.5569 98.2561 31.4538 98.2819 31.3765 98.3334C31.2991 98.3076 31.1703 98.3076 31.0156 98.3076C30.861 98.3076 30.6805 98.3334 30.4743 98.3592C30.3712 98.385 30.2681 98.4365 30.1392 98.4881C29.9846 98.4881 29.8299 98.4623 29.6237 98.4881C29.4433 98.4881 29.2371 98.5138 29.0051 98.5396C28.7989 98.5654 28.6443 98.72 28.567 99.0036C28.4896 99.2613 28.4896 99.648 28.567 100.163C28.567 100.215 28.6185 100.292 28.67 100.318C28.7216 100.37 28.7989 100.395 28.902 100.421C28.9535 100.447 29.0309 100.447 29.1082 100.473C29.1855 100.473 29.2629 100.524 29.3402 100.55C29.3918 100.55 29.5206 100.524 29.6495 100.524C29.8042 100.499 29.9073 100.499 29.9588 100.499L31.428 100.318C31.4796 100.318 31.5569 100.292 31.66 100.241C31.7631 100.189 31.8404 100.189 31.892 100.163C31.9435 100.138 31.9951 100.163 32.0209 100.189C32.0466 100.215 32.0724 100.241 32.0724 100.292C31.9951 100.499 31.9435 100.679 31.892 100.834C31.8404 100.988 31.7888 101.091 31.7373 101.194C31.3507 102.2 30.9383 103.076 30.5259 103.849C30.0877 104.623 29.6495 105.293 29.1598 105.911C29.0824 106.04 29.0051 106.169 28.9536 106.272C28.902 106.375 28.8505 106.453 28.7989 106.53L28.7731 106.633C28.67 106.736 28.5412 106.865 28.4381 106.994C28.335 107.123 28.2061 107.226 28.1287 107.355C27.9999 107.484 27.8452 107.613 27.7164 107.664C27.5875 107.741 27.4328 107.767 27.3039 107.793C27.2008 107.819 27.0977 107.793 26.9946 107.793C26.9173 107.767 26.84 107.716 26.8142 107.638C26.7627 107.613 26.6853 107.432 26.5565 107.123C26.4276 106.814 26.3502 106.607 26.2729 106.453C26.2214 106.221 26.1183 105.963 26.041 105.731C25.9636 105.499 25.8605 105.267 25.7832 105.035C25.6801 104.777 25.5254 104.571 25.3192 104.468C25.113 104.365 24.881 104.339 24.5975 104.365C24.4944 104.365 24.4171 104.416 24.314 104.468C24.2109 104.545 24.1336 104.648 24.082 104.777C23.9273 105.087 23.6181 105.525 23.1283 106.04C22.6644 106.582 22.3551 106.994 22.1746 107.303V107.432L22.1231 107.509C21.9685 107.69 21.8396 107.845 21.7107 107.948C21.5818 108.077 21.4787 108.18 21.4014 108.257C21.0663 108.412 20.8343 108.54 20.6281 108.618C20.4219 108.721 20.3188 108.747 20.293 108.747C19.7002 108.824 19.2362 108.695 18.8754 108.36C18.5145 108.025 18.2826 107.458 18.1794 106.71C18.3857 106.298 18.5661 105.86 18.7465 105.396C18.8754 105.112 19.0042 104.855 19.1331 104.648C19.262 104.416 19.3394 104.262 19.4167 104.107C19.4682 103.927 19.5198 103.798 19.5456 103.669C19.5713 103.54 19.6229 103.437 19.6486 103.36C19.726 103.179 19.8033 103.025 19.8806 102.896C19.9321 102.767 20.0095 102.664 20.0353 102.561C20.1126 102.38 20.1642 102.2 20.1899 102.071C20.2157 101.942 20.2414 101.813 20.2672 101.71C20.3188 101.555 20.3961 101.426 20.4477 101.298C20.4993 101.169 20.5508 101.066 20.6023 100.988C20.6796 100.679 20.7312 100.37 20.7827 100.086C20.8085 99.8284 20.8601 99.5964 20.8859 99.3902C20.9632 99.1582 21.0147 98.9778 21.0405 98.7974C21.0663 98.6169 21.1178 98.4881 21.1178 98.385L21.0921 98.2303C21.1179 98.153 21.1178 98.0757 21.1178 98.0241C21.092 97.8437 21.1178 97.6117 21.1694 97.354C21.2209 97.0962 21.221 96.9158 21.221 96.7611C21.221 96.6322 21.1952 96.426 21.221 96.1683C21.221 95.9105 21.2209 95.7043 21.1952 95.5754C21.1178 95.0857 21.0147 94.7764 20.8085 94.6218C20.6023 94.4671 20.293 94.4155 19.8549 94.4929C19.6229 94.5186 19.3909 94.7249 19.1589 95.0599C18.9269 95.395 18.6434 95.9105 18.3857 96.5807C18.1795 97.0704 17.999 97.5602 17.8444 98.0241C17.6897 98.4881 17.5866 98.952 17.4835 99.3644C17.4062 99.6222 17.3546 99.8542 17.2773 100.035C17.2258 100.241 17.1742 100.421 17.0969 100.55C16.968 101.298 16.8391 101.994 16.7618 102.638C16.6587 103.282 16.5814 103.875 16.5814 104.416L16.6845 104.623C16.6329 104.726 16.6071 104.983 16.6071 105.396C16.5813 105.808 16.6071 106.118 16.6071 106.298C16.6587 106.35 16.6587 106.427 16.6845 106.53C16.6845 106.607 16.7103 106.659 16.7103 106.71C16.7103 106.736 16.6844 106.788 16.6587 106.814L15.9885 107.613C15.8854 107.741 15.8081 107.896 15.7565 108.025C15.705 108.154 15.6535 108.257 15.6019 108.334C15.5246 108.412 15.4472 108.489 15.3957 108.54C15.3441 108.592 15.2668 108.618 15.2153 108.618C15.1637 108.618 15.1121 108.618 15.0606 108.566C15.009 108.541 14.9575 108.463 14.9317 108.386C14.9833 108.283 15.0606 108.18 15.1379 107.999C15.2153 107.819 15.2668 107.638 15.2926 107.381C15.3442 107.149 15.3699 106.942 15.3699 106.788C15.3957 106.582 15.3699 106.453 15.3699 106.298C15.2668 105.602 15.0606 105.112 14.7255 104.803C14.3904 104.494 13.9522 104.391 13.3852 104.468C13.3336 104.468 13.2048 104.52 13.0244 104.597C12.8439 104.7 12.5604 104.829 12.2511 105.009L12.148 104.906C12.2253 104.726 12.2769 104.52 12.3284 104.339C12.3027 104.262 12.2511 104.21 12.148 104.184C12.0706 104.159 11.9418 104.159 11.7613 104.184C11.6067 104.21 11.4778 104.262 11.349 104.339C11.2201 104.416 11.1169 104.52 10.9881 104.648C10.9107 104.777 10.8076 104.906 10.7303 105.035C10.653 105.164 10.5499 105.293 10.4468 105.422C10.3695 105.525 10.2664 105.628 10.1891 105.731C10.086 105.834 9.98283 105.937 9.9055 106.066C9.77663 106.195 9.69934 106.324 9.62201 106.453C9.54469 106.582 9.49311 106.685 9.46733 106.788C9.44156 106.814 9.41581 106.839 9.36426 106.891C9.41581 106.762 9.44156 106.659 9.46733 106.53C9.62199 105.911 9.64775 105.164 9.51887 104.313C9.44155 103.849 9.33846 103.411 9.20958 103.05C9.0807 102.664 8.92607 102.303 8.71987 101.994C8.56522 101.71 8.33324 101.426 8.07549 101.143C7.79196 100.834 7.45684 100.524 7.07021 100.163C7.01865 100.112 6.94134 100.06 6.88979 99.983C6.83824 99.9315 6.78669 99.9057 6.76091 99.8799C6.50316 99.6995 6.27118 99.5449 6.11653 99.416C5.96187 99.2871 5.85879 99.2098 5.80723 99.1325C5.4206 98.952 5.16286 98.7974 4.98243 98.6427C4.802 98.4881 4.38956 98.3076 3.7194 98.1014C3.48742 98.0241 3.25545 97.9726 3.02347 97.8952C2.79149 97.8179 2.58527 97.7664 2.35329 97.689L1.99246 97.7406C1.91513 97.689 1.76045 97.6375 1.58002 97.5859C1.34804 97.6117 1.01301 97.921 0.600606 98.4881C0.162424 99.0551 -0.0437926 99.4418 0.00775825 99.6737C0.00775825 99.7253 0.0592714 99.8284 0.162373 99.9573C0.265475 100.086 0.445941 100.267 0.652144 100.499C0.858348 100.756 1.03878 100.963 1.16765 101.143C1.29653 101.298 1.39959 101.452 1.45115 101.555L1.29653 105.344L1.42541 105.757C1.39963 106.014 1.39964 106.272 1.37387 106.478C1.37387 106.685 1.34807 106.865 1.34807 106.968C1.37384 107.406 1.37383 107.741 1.39961 107.973C1.39961 108.205 1.39961 108.36 1.39961 108.412C1.37383 108.876 1.37384 109.34 1.34807 109.803C1.34807 109.881 1.39959 110.01 1.45115 110.164C1.5027 110.319 1.52851 110.448 1.55429 110.525C1.60584 110.835 1.4254 111.092 1.09031 111.324C0.729458 111.556 0.574805 111.711 0.574805 111.814C0.574805 111.891 0.626356 111.969 0.703683 112.046C0.781009 112.098 0.884123 112.149 1.03878 112.201C1.14188 112.252 1.24497 112.304 1.34807 112.329C1.45117 112.381 1.55426 112.407 1.65736 112.433L1.81204 113.103C1.76049 113.489 1.73468 113.824 1.7089 114.082C1.68312 114.34 1.68312 114.572 1.7089 114.727C1.78623 115.268 1.88934 116.376 2.04399 116.634C2.19865 116.892 2.40489 116.995 2.66264 116.969C2.79152 116.943 2.9204 116.866 3.04927 116.737C3.17815 116.608 3.307 116.428 3.4101 116.196C3.51321 115.99 3.59053 115.835 3.66786 115.68C3.74519 115.526 3.79672 114.623 3.84827 114.469C3.64207 114.288 3.51318 114.108 3.3843 113.953C3.2812 113.799 3.20389 113.644 3.20389 113.515C3.17811 113.154 3.15232 112.768 3.12655 112.381C3.075 111.788 3.075 111.479 3.12655 111.427C3.1781 111.402 3.307 111.35 3.53898 111.324C3.61631 111.324 3.7194 111.273 3.84827 111.17C3.97715 111.092 4.15762 110.989 4.33805 110.86C5.03398 110.448 5.67833 110.087 6.29694 109.752C6.60625 109.572 6.86403 109.417 7.09601 109.288C6.70937 109.881 7.66303 110.242 8.53939 109.52C8.69405 109.391 8.7456 109.314 8.79715 109.314C8.87447 109.314 8.92605 109.314 8.95183 109.34C8.9776 109.365 9.02916 109.417 9.02916 109.468C9.02916 109.52 9.0034 109.726 8.97763 110.035C8.92607 110.345 8.92605 110.603 8.95183 110.809C9.00338 111.273 9.23534 111.634 9.64775 111.969C10.0602 112.304 10.4726 112.407 10.9108 112.355C10.9881 112.329 11.0654 112.304 11.1685 112.278C11.2974 112.226 11.3489 112.201 11.4005 112.201C11.5294 112.175 11.6583 112.149 11.8129 112.072C11.9676 111.994 12.1222 111.891 12.3284 111.762C12.6377 111.582 12.9212 111.376 13.179 111.118C13.411 110.86 13.6172 110.603 13.7718 110.319C13.8491 110.474 13.978 110.577 14.1069 110.654C14.2358 110.706 14.3905 110.757 14.5709 110.706C14.7255 110.68 14.8802 110.628 15.0349 110.551C15.1637 110.448 15.3441 110.319 15.4988 110.164C15.6276 110.035 15.7566 109.907 15.8597 109.778C15.9885 109.649 16.0916 109.494 16.2205 109.365C16.4009 109.159 16.5298 109.004 16.6329 108.824C16.736 108.669 16.8391 108.54 16.9422 108.412C17.0195 108.463 17.0711 108.515 17.1226 108.566C17.1742 108.618 17.2 108.669 17.2258 108.747C17.432 109.417 17.6897 109.932 18.0248 110.216C18.3599 110.525 18.7465 110.654 19.1847 110.603C19.3135 110.577 19.5198 110.577 19.7775 110.577C20.0353 110.551 20.2157 110.551 20.3446 110.525C20.5765 110.499 20.8085 110.396 21.0663 110.267C21.2983 110.139 21.5303 109.932 21.7365 109.7C21.9169 109.494 22.0973 109.288 22.2777 109.082C22.4581 108.85 22.6386 108.669 22.819 108.437H22.7932C23.051 108.077 23.2572 107.793 23.4634 107.587C23.6696 107.381 23.7985 107.278 23.9274 107.278C23.9789 107.278 24.0304 107.303 24.1335 107.381C24.2109 107.458 24.314 107.587 24.4171 107.741C24.5202 107.845 24.5975 107.922 24.6748 108.025C24.7522 108.102 24.8037 108.18 24.8553 108.231C25.2161 108.927 25.4997 109.365 25.7317 109.494C25.9636 109.623 26.4276 109.649 27.1493 109.546C27.2782 109.52 27.4328 109.468 27.639 109.314C27.8452 109.159 28.103 108.953 28.3865 108.695C28.6442 108.437 28.8762 108.231 29.0567 108.051C29.2371 107.87 29.3917 107.69 29.4948 107.561C29.5464 107.432 29.6237 107.329 29.6495 107.252C29.7011 107.174 29.7268 107.123 29.7526 107.071C30.1135 106.607 30.4486 106.169 30.8094 105.757C31.0414 105.499 31.2218 105.241 31.3765 105.009C31.5311 104.777 31.66 104.571 31.7373 104.365L31.8404 104.288C31.9178 104.313 31.9435 104.339 31.9693 104.391C31.892 104.623 31.8404 104.829 31.7889 105.009C31.7889 105.319 31.7889 105.628 31.7631 105.937C31.7631 106.118 31.7631 106.272 31.7631 106.427C31.7631 106.556 31.7631 106.659 31.7631 106.736C31.7373 106.788 31.7373 106.839 31.7116 106.917C31.66 107.123 31.66 107.406 31.66 107.741C31.6858 108.077 31.7116 108.463 31.7889 108.901C31.8404 109.314 31.9693 109.597 32.1755 109.778C32.356 109.958 32.6395 110.035 32.9745 109.984C33.1292 109.958 33.2839 109.907 33.4643 109.778C33.619 109.675 33.7994 109.494 33.954 109.262C34.0571 109.108 34.186 108.927 34.2891 108.747C34.3922 108.566 34.5211 108.386 34.6499 108.231C34.7788 108.077 34.8819 107.922 34.9592 107.819C35.0623 107.69 35.1397 107.587 35.217 107.484C35.3974 107.329 35.5521 107.174 35.681 107.046C35.8098 106.917 35.8872 106.814 35.9645 106.685V106.659C36.0418 106.556 36.1192 106.453 36.1707 106.375C36.2481 106.298 36.2996 106.272 36.3769 106.272C36.4542 106.246 36.5316 106.298 36.6089 106.375C36.6862 106.453 36.7635 106.556 36.8666 106.71C36.9955 106.917 37.0728 107.071 37.1759 107.226C37.279 107.381 37.3564 107.458 37.4595 107.535C37.6142 107.664 37.8203 107.767 38.0781 107.819C38.3101 107.87 38.5678 107.87 38.8513 107.845C39.0575 107.819 39.2637 107.767 39.4184 107.716C39.573 107.664 39.7019 107.587 39.805 107.509C40.1143 107.458 40.4236 107.303 40.7587 107.046C41.0938 106.762 41.4547 106.401 41.8413 105.886C41.9444 105.705 41.996 105.576 42.0217 105.525C42.0475 105.447 42.0733 105.422 42.0991 105.396C42.2795 105.112 42.4341 104.88 42.563 104.7C42.6919 104.52 42.795 104.339 42.8981 104.184L43.0012 104.288C43.027 104.416 43.027 104.545 43.0012 104.726C43.0012 104.906 42.9754 105.087 42.9496 105.319C42.8723 105.808 42.8207 106.246 42.8207 106.685C42.8207 107.097 42.8465 107.509 42.8981 107.87C42.9496 108.231 43.0528 108.489 43.259 108.669C43.4136 108.824 43.6713 108.876 43.9806 108.85C44.1868 108.824 44.3415 108.721 44.4446 108.566C44.5735 108.386 44.6766 108.231 44.7539 108.077C44.8312 107.948 44.9343 107.845 45.0117 107.767C45.089 107.69 45.1406 107.613 45.1663 107.535C45.2952 107.355 45.3983 107.174 45.5014 106.968C45.6045 106.788 45.7334 106.607 45.8365 106.427C46.0169 106.143 46.2231 105.834 46.4809 105.525C46.5067 105.525 46.8417 105.705 47.4603 106.118C48.0789 106.504 48.5171 106.685 48.7491 106.659C48.9811 106.633 49.1873 106.556 49.3935 106.427C49.5997 106.298 49.8059 106.092 50.0121 105.834C50.1926 105.654 50.3472 105.447 50.5018 105.241C50.6565 105.035 50.837 104.829 50.9916 104.623L50.9658 104.597C51.0174 104.52 51.0689 104.442 51.0689 104.391C51.0947 104.339 51.1205 104.288 51.1205 104.236C51.2494 104.081 51.3525 103.978 51.4298 103.849C51.5071 103.746 51.5844 103.643 51.6617 103.592C51.7133 103.54 51.7906 103.463 51.8937 103.308C52.0226 103.153 52.1515 102.947 52.3577 102.689C52.5123 102.457 52.6412 102.303 52.7443 102.2C52.8474 102.071 52.9505 102.019 53.0278 102.019C53.1052 102.019 53.1825 102.019 53.2083 102.045C53.2598 102.071 53.2856 102.097 53.2856 102.174C53.3114 102.226 53.3114 102.277 53.2856 102.354C53.2856 102.432 53.2598 102.535 53.2598 102.638C53.234 102.741 53.2083 102.844 53.2083 102.896C53.1825 102.973 53.1825 103.025 53.1825 103.05C53.0794 103.72 53.0021 104.339 52.899 104.829C52.8216 105.319 52.7443 105.757 52.667 106.092C52.7186 106.298 52.7701 106.53 52.8474 106.736C52.899 106.942 53.0794 107.02 53.3887 106.994C53.5433 106.968 53.698 106.942 53.8011 106.891C53.93 106.839 54.0331 106.762 54.1104 106.659C54.1877 106.556 54.2908 106.453 54.3682 106.35C54.4455 106.221 54.5486 106.118 54.6259 106.014C54.961 105.551 55.2445 105.164 55.4507 104.829C55.6827 104.494 55.8374 104.236 55.9147 104.03C55.9405 103.927 56.0436 103.824 56.1724 103.72C56.3271 103.617 56.5333 103.385 56.8426 103.05C56.9973 102.87 57.1261 102.741 57.255 102.612C57.3839 102.509 57.5128 102.406 57.6674 102.354L57.7705 102.38C57.9767 102.586 58.1572 102.741 58.3118 102.896C58.4665 103.05 58.5954 103.153 58.7242 103.257C58.8789 103.489 59.0077 103.669 59.1366 103.849C59.2397 103.978 59.3428 104.081 59.4202 104.133C59.549 104.288 59.7037 104.365 59.8841 104.442C60.0646 104.494 60.2192 104.494 60.4254 104.468C60.58 104.442 60.7347 104.391 60.8636 104.313C61.0182 104.236 61.1729 104.081 61.3275 103.901C61.4564 103.772 61.5595 103.643 61.6884 103.514C61.8173 103.385 61.9204 103.257 62.0492 103.128C62.307 102.767 62.5132 102.457 62.7194 102.277C62.8999 102.071 63.0545 101.968 63.1833 101.942C63.2349 101.942 63.2865 101.968 63.3896 102.045C63.4669 102.122 63.57 102.251 63.6989 102.406C63.7762 102.509 63.8793 102.586 63.9566 102.689C64.0339 102.767 64.0855 102.818 64.1371 102.896C64.4979 103.617 64.7814 104.03 65.0134 104.159C65.2454 104.288 65.7094 104.313 66.4311 104.21C66.5342 104.184 66.7146 104.107 66.9208 103.952C67.127 103.798 67.3848 103.617 67.6683 103.334C67.9261 103.076 68.158 102.87 68.3384 102.689C68.5189 102.509 68.6736 102.329 68.7767 102.2C68.8798 102.019 68.9313 101.89 68.9571 101.839C68.9829 101.787 69.0086 101.736 69.0344 101.684C69.1891 101.401 69.3694 101.194 69.4983 100.988C69.6272 100.808 69.7561 100.627 69.8334 100.499L69.9108 100.602C69.9365 100.705 69.9365 100.859 69.9108 101.04C69.9108 101.22 69.885 101.401 69.8592 101.633C69.7819 102.097 69.7303 102.561 69.7303 102.999C69.7303 103.411 69.7304 103.824 69.8077 104.21C69.8592 104.571 69.9623 104.829 70.1427 104.983C70.3231 105.138 70.5552 105.19 70.8902 105.138C71.0964 105.112 71.2511 105.035 71.3542 104.855C71.4573 104.7 71.5862 104.52 71.6635 104.365C71.7408 104.236 71.8439 104.133 71.9213 104.056C71.9986 103.978 72.0501 103.901 72.0759 103.824C72.2048 103.643 72.3079 103.463 72.411 103.282C72.5141 103.102 72.6172 102.921 72.7461 102.741C72.9265 102.432 73.1327 102.148 73.3904 101.839C73.442 101.813 73.7513 102.019 74.3699 102.432C74.9885 102.844 75.4009 103.025 75.6587 102.999C75.8907 102.947 76.0969 102.87 76.3031 102.741C76.5093 102.612 76.7155 102.432 76.9217 102.174C77.1021 101.968 77.2568 101.762 77.4114 101.555C77.5661 101.349 77.7465 101.143 77.9011 100.937C77.8496 100.782 79.1384 98.9263 78.7002 98.7201ZM6.73511 107.741C6.65779 107.845 6.50313 107.973 6.34848 108.154C6.2196 108.283 6.11655 108.386 6.01345 108.463C5.91035 108.566 5.80722 108.644 5.7299 108.695C5.52369 108.824 5.34328 108.953 5.16285 109.056C4.98242 109.159 4.802 109.314 4.5958 109.443C4.31227 109.649 4.0545 109.803 3.87408 109.907C3.69365 110.01 3.53897 110.061 3.46164 110.061C3.41009 110.061 3.35858 110.061 3.30703 110.01C3.25548 109.984 3.22969 109.907 3.22969 109.829C3.17814 109.494 3.17811 109.03 3.20389 108.463C3.22966 107.896 3.2812 107.2 3.3843 106.375L3.22969 105.911C3.30702 105.679 3.41013 105.009 3.56478 103.901C3.71944 102.793 3.77097 102.174 3.7452 102.019C3.69365 101.555 3.12655 100.937 2.09553 100.112C2.09553 100.06 2.09556 100.009 2.12133 100.009C2.14711 99.9831 2.17286 99.9573 2.22441 99.9573C2.50794 100.035 2.73993 100.138 2.94613 100.189C3.17811 100.267 3.35853 100.292 3.51318 100.344C3.61628 100.421 3.69363 100.499 3.79674 100.55C3.87406 100.627 3.97714 100.679 4.02869 100.705C4.6473 101.091 5.13705 101.452 5.52368 101.762C5.88454 102.071 6.16809 102.354 6.32274 102.561C6.37429 102.664 6.45163 102.767 6.52896 102.844C6.58051 102.896 6.65782 102.973 6.70937 102.999C6.76093 103.05 6.81244 103.102 6.86399 103.153C6.91554 103.179 6.94133 103.231 6.94133 103.282L7.01867 103.566C7.1991 103.849 7.328 104.159 7.4311 104.442C7.5342 104.726 7.6115 105.009 7.66305 105.293C7.7146 105.783 7.71463 106.195 7.55998 106.582C7.4311 106.942 7.2249 107.277 6.91559 107.561C6.88982 107.587 6.81244 107.638 6.73511 107.741ZM13.7203 108.077C13.7203 108.231 13.6945 108.386 13.6687 108.489C13.643 108.592 13.6172 108.669 13.5399 108.721C13.4625 108.876 13.3594 109.03 13.2563 109.185C13.0501 109.623 12.7923 109.958 12.5346 110.19C12.2511 110.422 11.9418 110.577 11.5809 110.628C11.3489 110.654 11.1943 110.628 11.0654 110.525C10.9365 110.422 10.8592 110.267 10.8334 110.061C10.8077 109.932 10.8077 109.803 10.8334 109.623C10.8592 109.443 10.885 109.236 10.9365 108.979C10.9881 108.695 11.0396 108.463 11.1169 108.309C11.1943 108.154 11.2458 108.077 11.3232 108.051C11.452 107.999 11.5551 107.973 11.6324 107.896C11.7098 107.845 11.8129 107.741 11.8645 107.638C11.9676 107.406 12.0706 107.2 12.148 106.994C12.1995 106.865 12.2769 106.762 12.3284 106.685C12.4058 106.607 12.4315 106.556 12.483 106.53C12.7408 106.53 12.9212 106.53 13.0759 106.53C13.2048 106.556 13.3079 106.556 13.3337 106.582C13.411 106.607 13.4625 106.685 13.5399 106.814C13.643 106.942 13.7203 107.123 13.8234 107.329L13.7203 108.077ZM18.1021 104.184C18.0763 104.081 18.1021 103.875 18.1279 103.592C18.1795 103.308 18.231 102.947 18.3341 102.483C18.4372 102.174 18.5145 101.89 18.6176 101.633C18.6692 101.426 18.7465 101.246 18.7723 101.091C18.7981 100.963 18.8238 100.859 18.798 100.808C18.7723 100.473 18.8238 100.086 18.9784 99.6737C19.1589 99.2613 19.4167 98.8489 19.8033 98.3592L19.8806 98.385C19.8806 98.5396 19.8549 98.6943 19.8549 98.8489C19.8291 99.0036 19.8291 99.1582 19.8549 99.3129C19.8549 99.4933 19.7775 99.983 19.5971 100.731C19.4167 101.478 19.2878 101.942 19.1847 102.122C19.0816 102.38 18.9785 102.638 18.9012 102.844C18.7981 103.05 18.7207 103.205 18.695 103.36C18.5919 103.643 18.5145 103.849 18.4372 104.004C18.3599 104.159 18.2825 104.236 18.2052 104.262L18.1021 104.184ZM37.8977 103.05C37.8461 103.153 37.7946 103.205 37.7173 103.205C37.6399 103.231 37.6142 103.205 37.5884 103.205C37.5626 103.179 37.5368 103.153 37.5368 103.102C37.511 102.896 37.6142 102.535 37.8461 102.071C38.0781 101.581 38.2585 101.323 38.4389 101.298C38.4905 101.298 38.542 101.298 38.5678 101.349C38.5936 101.401 38.6194 101.452 38.6194 101.504C38.6452 101.607 38.6194 101.736 38.5936 101.839C38.542 101.968 38.5163 102.071 38.4132 102.2C38.3616 102.303 38.2843 102.38 38.2328 102.483C38.1554 102.586 38.1039 102.689 38.0265 102.767C38.0008 102.87 37.9492 102.947 37.8977 103.05Z" fill="#00426D"/>
<path fill-rule="evenodd" clip-rule="evenodd" d="M72.5655 10.104C72.9263 9.25338 73.1067 8.2997 73.1067 7.32023C73.1067 3.27348 69.8074 0 65.7607 0C61.714 0 58.4405 3.27348 58.4405 7.32023C58.4405 7.44911 58.4405 7.57798 58.4663 7.70686H14.0552C6.32255 7.70686 0.00756836 14.0218 0.00756836 21.7287V72.3517C0.00756836 80.0585 6.32255 86.3735 14.0552 86.3735H64.7555C72.4623 86.3735 78.8031 80.0585 78.8031 72.3517V21.7545C78.8031 16.9087 76.3029 12.63 72.5655 10.104Z" fill="#00426D"/>
<path fill-rule="evenodd" clip-rule="evenodd" d="M70.0654 31.3687V47.0402V62.7374V78.4089H61.4822V70.0061L60.9667 71.5526L60.3223 73.0734L59.5748 74.491L58.7242 75.7798L58.2603 76.3468L57.7705 76.8623L56.7137 77.6872L56.1467 77.9965L55.5538 78.2542L54.961 78.3831L54.3424 78.4089H45.6045L43.6713 64.4644L48.0274 64.5675L49.3677 64.5417L50.708 64.4644L52.0484 64.1808L52.6927 63.9746L53.2598 63.6911L53.5175 63.3818L53.7238 62.9952L53.9042 62.6343L54.0331 62.2219L54.1104 61.7579L54.1362 61.2682L54.1104 60.2372L53.93 59.1546L53.6207 58.0463L53.2598 56.9121L52.8216 55.8296L47.7954 45.8287L51.7391 38.2249L52.2804 36.9877L52.7185 35.9052L53.002 34.9257L53.2083 34.0493L53.2598 33.2503L53.2341 32.5801L53.1309 31.9873L52.9248 31.4718L52.6412 31.0336L52.2804 30.6727L51.8421 30.3892L51.3266 30.1572L50.7854 29.9768L50.1925 29.8737L49.5224 29.7964H48.8264H45.3467L45.4756 32.0904L45.5014 34.4102L45.4241 36.73L45.2179 39.0498L44.9601 41.318L44.5993 43.5347L44.1611 45.6225L43.9034 46.602L43.6713 47.5557L43.362 48.5609L42.9754 49.5661L42.0991 51.6797L41.5836 52.7881L41.0423 53.8964L39.7535 56.1389L39.0833 57.2988L38.3616 58.4329L36.7893 60.7269L35.1397 62.9694L34.2633 64.0777L33.4127 65.1861V78.4089H26.4276V70.934L24.9068 78.4089H8.74561V62.7374V47.0402V31.3687V15.6972H17.3288L17.2773 40.1066L17.2515 64.5675H26.4276V48.432V32.3224H33.4127V48.7413L34.1087 47.5557L34.9335 46.1122L35.7583 44.5142L36.5574 42.7872L37.279 40.9829L37.8719 39.1529L38.1296 38.2249L38.2843 37.3486L38.3874 36.4464L38.4389 35.6216L38.3616 33.7142L38.1296 32.3481L37.9234 31.8842L37.7172 31.4976L37.4595 31.1883L37.1759 30.982L36.48 30.7758L35.6552 30.7243L33.6189 30.8016H24.4686L26.4276 15.7745H35.5779L36.4542 15.8003L37.3306 15.955L38.0781 16.1612L38.8513 16.4705L39.5473 16.8571L40.1917 17.2953L40.836 17.8108L41.3773 18.4036L41.9444 19.0222L42.4084 19.7697L43.259 21.3162L43.6456 22.1926L43.9806 23.0948L44.29 24.0227L44.5219 25.0279L45.8107 15.6972H52.9505L53.8011 15.7488L54.6002 15.955L55.3218 16.2385L56.0436 16.5993L56.7395 17.1149L57.3581 17.7077L57.951 18.4036L58.4665 19.1769L58.982 20.0017L59.4202 20.9038L59.781 21.9091L60.0903 22.9401L60.348 24.0227L60.5285 25.1568L60.6574 26.3425L60.6831 27.5539L60.6316 30.3119L60.4512 32.7348L60.1419 34.9515L59.9614 36.034L59.7553 37.0393L59.2397 39.0498L58.6469 41.0602L57.2034 45.3905L58.1314 47.5557L59.2655 50.3652L60.4512 53.6902L61.0182 55.4945L61.4822 57.3761V36.5238V15.6972H70.0654V31.3687Z" fill="white"/>
<path fill-rule="evenodd" clip-rule="evenodd" d="M65.7607 13.558C62.3326 13.558 59.5231 10.7484 59.5231 7.3203C59.5231 3.89217 62.3326 1.08264 65.7607 1.08264C69.1889 1.08264 71.9984 3.89217 71.9984 7.3203C72.0242 10.7484 69.2146 13.558 65.7607 13.558Z" fill="#ED1C24"/>
</svg>
