<svg width="350" height="223" viewBox="0 0 350 223" fill="none" xmlns="http://www.w3.org/2000/svg">
<path d="M320 0H30C13.4315 0 0 13.4315 0 30V193C0 209.569 13.4315 223 30 223H320C336.569 223 350 209.569 350 193V30C350 13.4315 336.569 0 320 0Z" fill="white"/>
<path d="M119.753 95.7419C121.223 95.7419 122.396 96.1513 123.27 96.9886C124.145 97.8073 124.573 98.905 124.573 100.263C124.573 101.64 124.126 102.757 123.233 103.575C122.34 104.413 121.13 104.822 119.623 104.822H116.535V108.822H113.316V95.7419H119.753ZM119.381 102.124C120.014 102.124 120.498 101.956 120.851 101.622C121.205 101.287 121.391 100.84 121.391 100.282C121.391 99.7423 121.205 99.3144 120.851 98.9795C120.479 98.6445 119.995 98.4771 119.381 98.4771H116.535V102.105H119.381V102.124Z" fill="#00426D"/>
<path d="M136.983 97.4352C138.341 98.7563 139.011 100.375 139.011 102.291C139.011 104.189 138.341 105.808 136.983 107.129C135.625 108.45 133.987 109.12 132.034 109.12C130.08 109.12 128.424 108.45 127.084 107.129C125.726 105.808 125.056 104.189 125.056 102.291C125.056 100.375 125.726 98.7563 127.084 97.4352C128.424 96.1142 130.08 95.4443 132.034 95.4443C133.987 95.4443 135.643 96.1142 136.983 97.4352ZM134.713 105.064C135.438 104.338 135.792 103.408 135.792 102.31C135.792 101.194 135.438 100.263 134.713 99.5191C133.987 98.7749 133.094 98.4027 132.034 98.4027C130.954 98.4027 130.061 98.7749 129.354 99.5191C128.629 100.263 128.275 101.194 128.275 102.31C128.275 103.408 128.629 104.338 129.354 105.064C130.061 105.808 130.954 106.162 132.034 106.162C133.094 106.162 133.987 105.789 134.713 105.064Z" fill="#00426D"/>
<path d="M149.729 108.822H140.053V95.7419H143.272V106.013H149.729V108.822Z" fill="#00426D"/>
<path d="M153.97 95.7419H150.751V108.822H153.97V95.7419Z" fill="#00426D"/>
<path d="M162.176 98.5515V108.822H158.957V98.5515H154.715V95.7419H166.419V98.5515H162.176Z" fill="#00426D"/>
<path d="M177.377 108.822H167.163V95.7419H177.303V98.5143H170.381V100.97H176.745V103.594H170.381V106.05H177.377V108.822Z" fill="#00426D"/>
<path d="M186.792 108.822L182.512 103.892H181.824V108.822H178.605V95.7419H181.824V100.933H182.308L186.755 95.7419H190.625L185.061 102.291L191.015 108.822H186.792Z" fill="#00426D"/>
<path d="M203.836 108.822H201.175L194.551 101.249V108.822H191.313V95.7419H193.993L200.635 103.557V95.7419H203.836V108.822Z" fill="#00426D"/>
<path d="M208.562 95.7419H205.343V108.822H208.562V95.7419Z" fill="#00426D"/>
<path d="M218.256 108.822L213.977 103.892H213.288V108.822H210.051V95.7419H213.288V100.933H213.753L218.219 95.7419H222.089L216.507 102.291L222.48 108.822H218.256Z" fill="#00426D"/>
<path d="M236.211 108.822H226.536V95.7419H229.755V106.013H236.211V108.822Z" fill="#00426D"/>
<path d="M243.69 95.7419C245.16 95.7419 246.332 96.1513 247.207 96.9886C248.081 97.8073 248.509 98.905 248.509 100.263C248.509 101.64 248.063 102.757 247.17 103.575C246.277 104.413 245.067 104.822 243.56 104.822H240.471V108.822H237.252V95.7419H243.69ZM243.318 102.124C243.951 102.124 244.434 101.956 244.788 101.622C245.142 101.287 245.328 100.84 245.328 100.282C245.328 99.7423 245.142 99.3144 244.788 98.9795C244.416 98.6445 243.932 98.4771 243.318 98.4771H240.471V102.105H243.318V102.124Z" fill="#00426D"/>
<path d="M258.873 104.896C258.873 106.124 258.408 107.148 257.496 107.929C256.585 108.711 255.413 109.101 253.98 109.101C252.603 109.101 251.449 108.729 250.519 107.985C249.589 107.241 249.049 106.236 248.919 104.971L251.97 104.413C252.063 105.064 252.287 105.566 252.622 105.92C252.975 106.273 253.422 106.441 253.998 106.441C254.538 106.441 255.003 106.292 255.357 105.994C255.71 105.696 255.878 105.324 255.878 104.859C255.878 104.413 255.729 104.059 255.413 103.799C255.096 103.538 254.668 103.408 254.11 103.408H252.603V101.026H253.98C254.519 101.026 254.966 100.896 255.264 100.635C255.58 100.375 255.729 100.021 255.729 99.5935C255.729 99.1469 255.561 98.7748 255.245 98.4957C254.929 98.2166 254.501 98.0864 253.98 98.0864C253.44 98.0864 252.975 98.2538 252.64 98.6073C252.287 98.9609 252.082 99.4818 252.026 100.189L249.068 99.6307C249.217 98.3469 249.719 97.3235 250.612 96.5606C251.505 95.7978 252.622 95.4257 253.961 95.4257C255.357 95.4257 256.492 95.8164 257.348 96.5793C258.222 97.3421 258.65 98.3282 258.65 99.5563C258.65 100.766 258.185 101.64 257.236 102.198C258.334 102.738 258.873 103.65 258.873 104.896Z" fill="#00426D"/>
<path d="M263.153 95.7419H259.934V108.822H263.153V95.7419Z" fill="#00426D"/>
<path d="M84.8108 139.262C84.5131 139.113 83.9735 139.783 83.7502 140.025C83.6758 140.1 83.6014 140.155 83.5456 140.248C83.4898 140.323 83.4153 140.397 83.3595 140.453C83.2665 140.546 83.2107 140.602 83.1363 140.658C83.0618 140.695 83.006 140.732 82.9502 140.732C82.7827 140.769 82.5595 140.639 82.2431 140.379C81.9454 140.118 81.7966 139.895 81.7594 139.765C81.7408 139.56 81.9082 139.095 82.299 138.369C82.6897 137.662 82.8572 137.085 82.8013 136.639C82.7827 136.471 82.7269 136.341 82.6711 136.267C82.5967 136.192 82.5036 136.155 82.3734 136.174C82.3176 136.174 82.2431 136.267 82.1501 136.434C82.0757 136.602 81.9455 136.825 81.8338 137.16C81.6105 137.755 81.4245 138.22 81.2756 138.537C81.1454 138.834 81.0523 139.002 80.9965 139.039C80.6616 139.169 80.4383 139.318 80.3267 139.486C80.2337 139.653 80.1778 139.914 80.1778 140.286V140.528C80.1034 140.788 80.029 141.03 79.9359 141.253C79.8615 141.477 79.7685 141.663 79.6755 141.849C79.6569 141.923 79.6383 141.96 79.6011 141.997C79.5638 142.035 79.508 142.072 79.4522 142.072C79.415 142.072 79.415 142.072 79.3964 142.072C79.3778 142.053 79.3778 142.035 79.3592 141.997C79.3592 141.942 79.3591 141.83 79.3777 141.644C79.3963 141.476 79.4336 141.216 79.4708 140.918C79.5266 140.583 79.5824 140.267 79.6196 139.932C79.6568 139.597 79.7127 139.281 79.7685 138.946C79.8243 138.537 79.8801 138.165 79.9732 137.848C80.0476 137.513 80.122 137.253 80.1964 137.03C80.5686 136.006 80.8291 135.169 80.9779 134.462C81.1268 133.755 81.1826 133.234 81.1268 132.862C81.0709 132.527 80.9965 132.285 80.8477 132.117C80.7174 131.95 80.5313 131.894 80.3081 131.931C80.2708 131.931 80.2151 131.95 80.1964 131.987C80.1592 132.024 80.122 132.062 80.1034 132.117C80.0104 132.341 79.9359 132.564 79.8615 132.806C79.7871 133.048 79.7313 133.308 79.6941 133.569C79.6941 133.662 79.6569 133.736 79.6383 133.811C79.601 133.885 79.5824 133.941 79.5638 133.978C79.5266 134.071 79.4708 134.276 79.3964 134.555C79.3219 134.834 79.2289 135.188 79.1359 135.634C79.0243 136.099 78.9498 136.49 78.894 136.769C78.8196 137.067 78.7824 137.271 78.7638 137.402C78.6707 137.551 78.5777 137.755 78.466 138.016C78.373 138.276 78.2614 138.593 78.1497 138.965C78.0567 139.225 77.9823 139.467 77.8892 139.69C77.7776 139.895 77.666 140.081 77.5171 140.23C77.4427 140.323 77.3869 140.416 77.331 140.472C77.2752 140.546 77.238 140.602 77.2194 140.676C77.2008 140.751 77.1822 140.807 77.1636 140.844C77.145 140.862 76.9403 141.104 76.8659 141.179C76.7915 141.272 76.717 141.365 76.6426 141.439C76.531 141.551 76.438 141.625 76.3449 141.681C76.2519 141.737 76.1403 141.756 76.0472 141.774C75.9728 141.774 75.8984 141.774 75.824 141.756C75.7681 141.737 75.7123 141.718 75.6937 141.644C75.6565 141.607 75.6007 141.495 75.5077 141.272C75.4146 141.049 75.3588 140.9 75.2843 140.788C75.2471 140.602 75.1913 140.435 75.1355 140.267C75.0797 140.081 75.0239 139.932 74.9495 139.746C74.875 139.56 74.7634 139.43 74.6145 139.355C74.4657 139.281 74.2982 139.244 74.0936 139.281C74.0191 139.3 73.9447 139.318 73.8889 139.374C73.8144 139.43 73.7586 139.486 73.7214 139.597C73.6098 139.839 73.3679 140.137 73.033 140.509C72.6981 140.9 72.4748 141.197 72.3446 141.439L72.3259 141.532C72.3259 141.532 72.2143 141.7 72.1399 141.737C72.0841 141.774 72.0282 141.793 71.9538 141.811C71.8608 141.83 71.7678 141.793 71.6747 141.718C71.5817 141.644 71.5073 141.532 71.4143 141.365C71.284 141.067 71.1351 140.769 70.9677 140.453C70.8374 140.286 70.7072 140.174 70.577 140.1C70.4281 140.025 70.2606 140.007 70.0932 140.044C70.0002 140.044 69.9071 140.081 69.7955 140.155C69.6838 140.23 69.5536 140.304 69.4048 140.397C69.2931 140.509 69.1815 140.602 69.0885 140.695C68.9954 140.788 68.921 140.881 68.8466 140.956C68.8094 141.03 68.7721 141.086 68.7535 141.123C68.7349 141.179 68.6977 141.235 68.6791 141.253C68.5861 141.346 68.5117 141.439 68.4372 141.551C68.3628 141.644 68.3256 141.756 68.2884 141.849C68.1767 141.979 68.0837 142.091 67.9907 142.202C67.9162 142.314 67.8604 142.407 67.8232 142.5C67.8046 142.537 67.7674 142.574 67.7488 142.611C67.7302 142.649 67.7116 142.667 67.6744 142.686C67.6371 142.649 67.6 142.611 67.6 142.574C67.6 142.537 67.6 142.5 67.6 142.444C67.6 142.388 67.6185 142.314 67.6372 142.239C67.6744 142.146 67.693 142.035 67.7302 141.904C67.8604 141.272 67.9349 140.788 67.9721 140.397C68.0279 140.025 68.0279 139.765 68.0093 139.634C67.9721 139.393 67.8977 139.225 67.786 139.095C67.6744 138.983 67.5069 138.946 67.3209 138.983C67.1162 139.002 66.9301 139.076 66.7627 139.188C66.5952 139.3 66.4463 139.467 66.3161 139.672C66.1672 139.914 66.0184 140.1 65.9068 140.286C65.7951 140.435 65.7021 140.583 65.6277 140.695C65.4602 140.956 65.3114 141.179 65.1811 141.365C65.0509 141.551 64.9578 141.718 64.8648 141.83C64.7717 141.96 64.6787 142.072 64.6043 142.165C64.5299 142.258 64.4555 142.332 64.4182 142.388C64.381 142.463 64.3438 142.537 64.3066 142.574C64.2694 142.63 64.2508 142.667 64.2322 142.723V142.742C64.1578 142.798 64.1019 142.872 64.0461 142.946C63.9903 143.021 63.9159 143.095 63.8601 143.151C63.767 143.244 63.6926 143.319 63.6368 143.356C63.581 143.393 63.5065 143.43 63.4507 143.43C63.2833 143.467 63.06 143.337 62.7623 143.077C62.4646 142.816 62.2971 142.611 62.2785 142.463C62.2413 142.258 62.4273 141.793 62.8181 141.067C63.2088 140.342 63.3763 139.765 63.3205 139.337C63.3019 139.169 63.246 139.039 63.1902 138.965C63.1158 138.89 63.0228 138.853 62.8925 138.872C62.8367 138.89 62.7623 138.965 62.6693 139.132C62.5762 139.3 62.4646 139.541 62.3343 139.858C62.1111 140.472 61.925 140.918 61.7947 141.235C61.6459 141.551 61.5528 141.718 61.5156 141.737C61.1807 141.867 60.9575 142.016 60.8458 142.184C60.7342 142.351 60.697 142.611 60.697 142.984V143.225C60.6225 143.486 60.5481 143.728 60.4551 143.951C60.3807 144.174 60.2876 144.36 60.1946 144.547C60.176 144.602 60.1574 144.677 60.1202 144.714C60.0829 144.751 60.0457 144.77 59.9899 144.788C59.9713 144.788 59.9341 144.788 59.9341 144.77C59.9155 144.751 59.8969 144.733 59.8969 144.695C59.8969 144.64 59.8969 144.528 59.9155 144.342C59.9341 144.174 59.9713 143.933 60.0271 143.635C60.0829 143.319 60.1202 142.984 60.176 142.649C60.2132 142.332 60.269 141.997 60.3248 141.681C60.3993 141.272 60.4551 140.9 60.5295 140.565C60.604 140.248 60.6784 139.969 60.7528 139.746C61.1249 138.741 61.3668 137.885 61.5343 137.197C61.6645 136.49 61.7203 135.95 61.6645 135.578C61.6273 135.243 61.5343 135.001 61.404 134.853C61.2738 134.685 61.0877 134.629 60.8644 134.667C60.8272 134.667 60.79 134.685 60.7342 134.741C60.697 134.778 60.6784 134.815 60.6411 134.871C60.5667 135.076 60.4923 135.318 60.3993 135.541C60.3248 135.783 60.269 136.043 60.2318 136.323C60.2318 136.416 60.1946 136.49 60.176 136.564C60.1388 136.62 60.1202 136.676 60.1016 136.713C60.0644 136.825 60.0085 137.011 59.9341 137.309C59.8597 137.588 59.7667 137.96 59.6736 138.406C59.562 138.872 59.469 139.244 59.4132 139.541C59.3573 139.839 59.3201 140.062 59.3015 140.174C59.2085 140.323 59.1154 140.528 59.0038 140.788C58.9107 141.049 58.7991 141.365 58.6875 141.737C58.5944 141.997 58.5014 142.239 58.4084 142.463C58.3153 142.667 58.1851 142.853 58.0549 143.002C57.9805 143.095 57.9246 143.17 57.8688 143.244C57.813 143.319 57.7758 143.393 57.7572 143.449C57.7386 143.523 57.7199 143.579 57.7013 143.616C57.6827 143.653 57.6642 143.672 57.6455 143.691C57.6083 143.746 57.5525 143.802 57.4781 143.84C57.4222 143.877 57.385 143.914 57.3478 143.933C57.2176 144.044 57.0688 144.119 56.9013 144.212C56.7338 144.286 56.5291 144.36 56.3245 144.398C56.1942 144.379 56.064 144.379 55.971 144.36C55.8593 144.342 55.7849 144.305 55.7291 144.286C55.6547 144.249 55.5802 144.193 55.5244 144.119C55.4686 144.026 55.4314 143.933 55.4128 143.821C55.3942 143.746 55.4128 143.691 55.4314 143.616C55.45 143.56 55.4872 143.505 55.5058 143.449C55.9152 142.928 56.2314 142.481 56.4547 142.091C56.678 141.7 56.8083 141.365 56.8455 141.086L56.8827 140.807C56.9013 140.658 56.9199 140.565 56.9199 140.509C56.9199 140.435 56.9385 140.416 56.9571 140.472C56.9199 140.342 56.8827 140.211 56.8455 140.118C56.8083 139.988 56.7338 139.876 56.6966 139.802C56.6408 139.709 56.585 139.653 56.5477 139.616C56.4919 139.56 56.3989 139.523 56.3059 139.504C56.2128 139.486 56.1012 139.486 55.971 139.504C55.8779 139.523 55.7849 139.541 55.7105 139.579C55.6174 139.616 55.543 139.653 55.4872 139.672C55.4128 139.746 55.3569 139.802 55.2825 139.839C55.2267 139.895 55.1523 139.951 55.1151 140.007C55.0034 140.174 54.8918 140.36 54.7801 140.528C54.6685 140.695 54.5569 140.862 54.4638 141.011C54.3522 141.253 54.2778 141.476 54.2034 141.681C54.1476 141.867 54.0917 142.035 54.0731 142.165C54.0359 142.295 54.0173 142.425 53.9987 142.518C53.9801 142.63 53.9615 142.723 53.9615 142.816C53.9615 142.928 53.9615 143.039 53.9615 143.151V143.505C53.8126 143.653 53.701 143.802 53.6079 143.933C53.5149 144.063 53.4405 144.212 53.3847 144.323C53.0497 144.695 52.8079 144.956 52.6218 145.161C52.4358 145.347 52.3241 145.458 52.2869 145.458C52.2311 145.477 52.1939 145.458 52.1567 145.402C52.1195 145.365 52.1008 145.291 52.0822 145.216C52.0636 145.105 52.0636 144.9 52.0636 144.621C52.0636 144.323 52.0822 143.933 52.1008 143.449C52.1753 142.835 52.2311 142.295 52.2869 141.867C52.3427 141.421 52.3985 141.049 52.4543 140.751C52.473 140.639 52.473 140.546 52.473 140.453C52.4916 140.379 52.4915 140.286 52.4915 140.23L53.0497 140.044C53.1242 140.025 53.1428 139.914 53.1614 139.746C53.1614 139.56 53.1428 139.3 53.087 138.965C53.0684 138.872 53.0683 138.816 53.0497 138.76C53.0311 138.704 52.9939 138.686 52.9567 138.667C52.9195 138.63 52.8823 138.611 52.8637 138.593C52.8451 138.574 52.8265 138.555 52.8079 138.537C52.8079 138.425 52.8265 138.258 52.8823 138.034C52.9381 137.83 52.9381 137.644 52.9381 137.513C52.9009 137.346 52.8451 137.234 52.7706 137.16C52.6962 137.085 52.5846 137.048 52.4543 137.085C52.2125 137.123 52.0078 137.42 51.859 137.978C51.7287 138.537 51.5426 138.834 51.3566 138.872L51.0775 138.834C50.9845 138.853 50.91 138.89 50.8542 138.909C50.7798 138.927 50.7054 138.946 50.6495 138.983C50.5937 138.965 50.5007 138.965 50.3891 138.965C50.2774 138.965 50.1472 138.983 49.9983 139.002C49.9239 139.02 49.8495 139.058 49.7564 139.095C49.6448 139.095 49.5331 139.076 49.3843 139.095C49.254 139.095 49.1052 139.113 48.9378 139.132C48.7889 139.151 48.6773 139.262 48.6215 139.467C48.5656 139.653 48.5656 139.932 48.6215 140.304C48.6215 140.342 48.6587 140.397 48.6959 140.416C48.7331 140.453 48.7889 140.472 48.8633 140.49C48.9005 140.509 48.9563 140.509 49.0122 140.528C49.068 140.528 49.1238 140.565 49.1797 140.583C49.2169 140.583 49.3099 140.565 49.4029 140.565C49.5146 140.546 49.589 140.546 49.6262 140.546L50.6867 140.416C50.724 140.416 50.7798 140.397 50.8542 140.36C50.9286 140.323 50.9844 140.323 51.0217 140.304C51.0589 140.286 51.0961 140.304 51.1147 140.323C51.1333 140.342 51.1519 140.36 51.1519 140.397C51.0961 140.546 51.0589 140.676 51.0217 140.788C50.9844 140.9 50.9472 140.974 50.91 141.049C50.6309 141.774 50.3332 142.407 50.0355 142.965C49.7192 143.523 49.4029 144.007 49.0494 144.454C48.9936 144.547 48.9378 144.64 48.9006 144.714C48.8633 144.788 48.8261 144.844 48.7889 144.9L48.7703 144.974C48.6958 145.049 48.6029 145.142 48.5284 145.235C48.454 145.328 48.3609 145.402 48.3051 145.495C48.2121 145.589 48.1005 145.682 48.0074 145.719C47.9144 145.775 47.8028 145.793 47.7097 145.812C47.6353 145.83 47.5609 145.812 47.4865 145.812C47.4306 145.793 47.3748 145.756 47.3562 145.7C47.319 145.682 47.2632 145.551 47.1702 145.328C47.0771 145.105 47.0213 144.956 46.9655 144.844C46.9283 144.677 46.8538 144.491 46.798 144.323C46.7422 144.156 46.6678 143.988 46.612 143.821C46.5375 143.635 46.4259 143.486 46.277 143.412C46.1282 143.337 45.9607 143.319 45.7561 143.337C45.6816 143.337 45.6258 143.374 45.5514 143.412C45.477 143.467 45.4211 143.542 45.3839 143.635C45.2723 143.858 45.049 144.174 44.6955 144.547C44.3606 144.937 44.1373 145.235 44.0071 145.458V145.551L43.9699 145.607C43.8582 145.737 43.7652 145.849 43.6721 145.923C43.5791 146.016 43.5047 146.091 43.4489 146.147C43.207 146.258 43.0395 146.351 42.8907 146.407C42.7418 146.482 42.6674 146.5 42.6488 146.5C42.2209 146.556 41.8859 146.463 41.6254 146.221C41.365 145.979 41.1975 145.57 41.1231 145.03C41.2719 144.733 41.4022 144.416 41.5324 144.081C41.6254 143.877 41.7185 143.691 41.8115 143.542C41.9045 143.374 41.9604 143.263 42.0162 143.151C42.0534 143.021 42.0906 142.928 42.1092 142.835C42.1278 142.742 42.165 142.667 42.1836 142.611C42.2395 142.481 42.2953 142.37 42.3511 142.277C42.3883 142.184 42.4441 142.109 42.4627 142.035C42.5186 141.904 42.5558 141.774 42.5744 141.681C42.593 141.588 42.6116 141.495 42.6302 141.421C42.6674 141.309 42.7232 141.216 42.7605 141.123C42.7977 141.03 42.8349 140.956 42.8721 140.9C42.9279 140.676 42.9651 140.453 43.0023 140.248C43.0209 140.062 43.0581 139.895 43.0768 139.746C43.1326 139.579 43.1698 139.448 43.1884 139.318C43.207 139.188 43.2442 139.095 43.2442 139.02L43.2256 138.909C43.2442 138.853 43.2442 138.797 43.2442 138.76C43.2256 138.63 43.2442 138.462 43.2814 138.276C43.3186 138.09 43.3186 137.96 43.3186 137.848C43.3186 137.755 43.3 137.606 43.3186 137.42C43.3186 137.234 43.3186 137.085 43.3 136.992C43.2442 136.639 43.1698 136.416 43.0209 136.304C42.8721 136.192 42.6488 136.155 42.3325 136.211C42.165 136.229 41.9976 136.378 41.8301 136.62C41.6627 136.862 41.458 137.234 41.2719 137.718C41.1231 138.072 40.9928 138.425 40.8812 138.76C40.7696 139.095 40.6951 139.43 40.6207 139.728C40.5649 139.914 40.5277 140.081 40.4719 140.211C40.4347 140.36 40.3974 140.49 40.3416 140.583C40.2486 141.123 40.1556 141.625 40.0997 142.091C40.0253 142.556 39.9695 142.984 39.9695 143.374L40.0439 143.523C40.0067 143.598 39.9881 143.784 39.9881 144.081C39.9695 144.379 39.9881 144.602 39.9881 144.733C40.0253 144.77 40.0253 144.826 40.0439 144.9C40.0439 144.956 40.0625 144.993 40.0625 145.03C40.0625 145.049 40.0439 145.086 40.0253 145.105L39.5415 145.682C39.4671 145.775 39.4113 145.886 39.3741 145.979C39.3368 146.072 39.2997 146.147 39.2624 146.203C39.2066 146.258 39.1508 146.314 39.1136 146.351C39.0764 146.389 39.0206 146.407 38.9834 146.407C38.9461 146.407 38.9089 146.407 38.8717 146.37C38.8345 146.351 38.7973 146.296 38.7787 146.24C38.8159 146.165 38.8717 146.091 38.9275 145.961C38.9833 145.83 39.0206 145.7 39.0392 145.514C39.0764 145.347 39.095 145.198 39.095 145.086C39.1136 144.937 39.095 144.844 39.095 144.733C39.0205 144.23 38.8717 143.877 38.6298 143.653C38.3879 143.43 38.0716 143.356 37.6623 143.412C37.6251 143.412 37.5321 143.449 37.4018 143.505C37.2716 143.579 37.0669 143.672 36.8436 143.802L36.7692 143.728C36.825 143.598 36.8622 143.449 36.8995 143.319C36.8808 143.263 36.8436 143.225 36.7692 143.207C36.7134 143.188 36.6203 143.188 36.4901 143.207C36.3784 143.225 36.2854 143.263 36.1924 143.319C36.0994 143.374 36.0249 143.449 35.9319 143.542C35.8761 143.635 35.8016 143.728 35.7458 143.821C35.69 143.914 35.6156 144.007 35.5412 144.1C35.4854 144.174 35.4109 144.249 35.3551 144.323C35.2807 144.398 35.2062 144.472 35.1504 144.565C35.0574 144.658 35.0016 144.751 34.9458 144.844C34.89 144.937 34.8527 145.012 34.8341 145.086C34.8155 145.105 34.7969 145.123 34.7597 145.161C34.7969 145.068 34.8155 144.993 34.8341 144.9C34.9458 144.454 34.9644 143.914 34.8713 143.3C34.8155 142.965 34.7411 142.649 34.6481 142.388C34.555 142.109 34.4434 141.849 34.2946 141.625C34.1829 141.421 34.0155 141.216 33.8294 141.011C33.6247 140.788 33.3828 140.565 33.1037 140.304C33.0665 140.267 33.0107 140.23 32.9735 140.174C32.9363 140.137 32.8991 140.118 32.8805 140.1C32.6944 139.969 32.5269 139.858 32.4153 139.765C32.3037 139.672 32.2292 139.616 32.192 139.56C31.9129 139.43 31.7269 139.318 31.5966 139.207C31.4664 139.095 31.1687 138.965 30.6849 138.816C30.5174 138.76 30.35 138.723 30.1825 138.667C30.0151 138.611 29.8662 138.574 29.6988 138.518L29.4383 138.555C29.3825 138.518 29.2708 138.481 29.1406 138.444C28.9731 138.462 28.7313 138.686 28.4336 139.095C28.1172 139.504 27.9684 139.783 28.0056 139.951C28.0056 139.988 28.0428 140.062 28.1172 140.155C28.1916 140.248 28.3219 140.379 28.4708 140.546C28.6196 140.732 28.7499 140.881 28.8429 141.011C28.9359 141.123 29.0103 141.235 29.0475 141.309L28.9359 144.044L29.029 144.342C29.0103 144.528 29.0104 144.714 28.9917 144.863C28.9917 145.012 28.9731 145.142 28.9731 145.216C28.9917 145.533 28.9917 145.775 29.0103 145.942C29.0103 146.109 29.0103 146.221 29.0103 146.258C28.9917 146.593 28.9917 146.928 28.9731 147.263C28.9731 147.319 29.0103 147.412 29.0475 147.524C29.0847 147.635 29.1034 147.728 29.122 147.784C29.1592 148.007 29.0289 148.193 28.7871 148.361C28.5266 148.528 28.4149 148.64 28.4149 148.714C28.4149 148.77 28.4521 148.826 28.508 148.882C28.5638 148.919 28.6382 148.956 28.7499 148.993C28.8243 149.031 28.8987 149.068 28.9731 149.086C29.0475 149.124 29.122 149.142 29.1964 149.161L29.308 149.645C29.2708 149.924 29.2522 150.166 29.2336 150.352C29.215 150.538 29.215 150.705 29.2336 150.817C29.2894 151.208 29.3638 152.008 29.4755 152.194C29.5871 152.38 29.736 152.454 29.9221 152.436C30.0151 152.417 30.1081 152.361 30.2012 152.268C30.2942 152.175 30.3872 152.045 30.4616 151.877C30.5361 151.729 30.5919 151.617 30.6477 151.505C30.7035 151.394 30.7407 150.742 30.7779 150.631C30.6291 150.501 30.536 150.37 30.443 150.259C30.3686 150.147 30.3128 150.035 30.3128 149.942C30.2942 149.682 30.2755 149.403 30.2569 149.124C30.2197 148.696 30.2197 148.472 30.2569 148.435C30.2942 148.417 30.3872 148.379 30.5547 148.361C30.6105 148.361 30.6849 148.324 30.7779 148.249C30.871 148.193 31.0012 148.119 31.1315 148.026C31.6339 147.728 32.099 147.468 32.5455 147.226C32.7688 147.096 32.9549 146.984 33.1224 146.891C32.8433 147.319 33.5317 147.579 34.1643 147.058C34.2759 146.965 34.3131 146.91 34.3503 146.91C34.4062 146.91 34.4434 146.91 34.462 146.928C34.4806 146.947 34.5178 146.984 34.5178 147.021C34.5178 147.058 34.4992 147.207 34.4806 147.431C34.4434 147.654 34.4434 147.84 34.462 147.989C34.4992 148.324 34.6667 148.584 34.9644 148.826C35.2621 149.068 35.5598 149.142 35.8761 149.105C35.9319 149.086 35.9877 149.068 36.0622 149.049C36.1552 149.012 36.1924 148.993 36.2296 148.993C36.3226 148.975 36.4157 148.956 36.5273 148.9C36.639 148.845 36.7506 148.77 36.8995 148.677C37.1227 148.547 37.3274 148.398 37.5134 148.212C37.6809 148.026 37.8297 147.84 37.9414 147.635C37.9972 147.747 38.0902 147.821 38.1833 147.877C38.2763 147.914 38.388 147.952 38.5182 147.914C38.6298 147.896 38.7415 147.858 38.8531 147.803C38.9462 147.728 39.0764 147.635 39.188 147.524C39.281 147.431 39.3741 147.337 39.4485 147.244C39.5415 147.151 39.616 147.04 39.709 146.947C39.8392 146.798 39.9323 146.686 40.0067 146.556C40.0811 146.444 40.1555 146.351 40.23 146.258C40.2858 146.296 40.323 146.333 40.3602 146.37C40.3974 146.407 40.4161 146.444 40.4347 146.5C40.5835 146.984 40.7695 147.356 41.0114 147.561C41.2533 147.784 41.5324 147.877 41.8487 147.84C41.9417 147.821 42.0906 147.821 42.2767 147.821C42.4627 147.803 42.593 147.803 42.686 147.784C42.8535 147.765 43.0209 147.691 43.207 147.598C43.3744 147.505 43.5419 147.356 43.6908 147.189C43.821 147.04 43.9512 146.891 44.0815 146.742C44.2117 146.575 44.342 146.444 44.4722 146.277H44.4536C44.6397 146.016 44.7885 145.812 44.9374 145.663C45.0862 145.514 45.1793 145.44 45.2723 145.44C45.3095 145.44 45.3467 145.458 45.4211 145.514C45.4769 145.57 45.5514 145.663 45.6258 145.775C45.7002 145.849 45.7561 145.905 45.8119 145.979C45.8677 146.035 45.9049 146.091 45.9421 146.128C46.2026 146.63 46.4073 146.947 46.5748 147.04C46.7422 147.133 47.0771 147.151 47.5981 147.077C47.6911 147.058 47.8028 147.021 47.9516 146.91C48.1005 146.798 48.2865 146.649 48.4912 146.463C48.6772 146.277 48.8447 146.128 48.975 145.998C49.1052 145.868 49.2168 145.737 49.2913 145.644C49.3285 145.551 49.3843 145.477 49.4029 145.421C49.4401 145.365 49.4587 145.328 49.4773 145.291C49.7378 144.956 49.9797 144.64 50.2402 144.342C50.4077 144.156 50.5379 143.97 50.6495 143.802C50.7612 143.635 50.8542 143.486 50.91 143.337L50.9845 143.281C51.0403 143.3 51.0589 143.319 51.0775 143.356C51.0217 143.523 50.9845 143.672 50.9473 143.802C50.9473 144.026 50.9472 144.249 50.9286 144.472C50.9286 144.602 50.9286 144.714 50.9286 144.826C50.9286 144.919 50.9286 144.993 50.9286 145.049C50.91 145.086 50.91 145.123 50.8914 145.179C50.8542 145.328 50.8542 145.533 50.8542 145.775C50.8728 146.016 50.8914 146.296 50.9473 146.612C50.9845 146.91 51.0775 147.114 51.2264 147.244C51.3566 147.375 51.5612 147.431 51.8031 147.393C51.9148 147.375 52.0264 147.337 52.1567 147.244C52.2683 147.17 52.3985 147.04 52.5102 146.872C52.5846 146.761 52.6776 146.63 52.7521 146.5C52.8265 146.37 52.9195 146.24 53.0125 146.128C53.1056 146.016 53.18 145.905 53.2358 145.83C53.3102 145.737 53.366 145.663 53.4219 145.589C53.5521 145.477 53.6638 145.365 53.7568 145.272C53.8498 145.179 53.9057 145.105 53.9615 145.012V144.993C54.0173 144.919 54.0731 144.844 54.1103 144.788C54.1662 144.733 54.2033 144.714 54.2592 144.714C54.315 144.695 54.3708 144.733 54.4266 144.788C54.4825 144.844 54.5383 144.919 54.6127 145.03C54.7057 145.179 54.7615 145.291 54.836 145.402C54.9104 145.514 54.9662 145.57 55.0407 145.626C55.1523 145.719 55.3011 145.793 55.4872 145.83C55.6546 145.868 55.8407 145.868 56.0454 145.849C56.1942 145.83 56.3431 145.793 56.4547 145.756C56.5664 145.719 56.6594 145.663 56.7338 145.607C56.9571 145.57 57.1804 145.458 57.4222 145.272C57.6641 145.068 57.9246 144.807 58.2037 144.435C58.2782 144.305 58.3154 144.212 58.334 144.174C58.3526 144.119 58.3712 144.1 58.3898 144.081C58.52 143.877 58.6316 143.709 58.7247 143.579C58.8177 143.449 58.8921 143.319 58.9666 143.207L59.041 143.281C59.0596 143.374 59.0596 143.467 59.041 143.598C59.041 143.728 59.0224 143.858 59.0038 144.026C58.948 144.379 58.9107 144.695 58.9107 145.012C58.9107 145.309 58.9294 145.607 58.9666 145.868C59.0038 146.128 59.0782 146.314 59.2271 146.444C59.3387 146.556 59.5248 146.593 59.748 146.575C59.8969 146.556 60.0085 146.482 60.083 146.37C60.176 146.24 60.2504 146.128 60.3062 146.016C60.362 145.923 60.4365 145.849 60.4923 145.793C60.5481 145.737 60.5853 145.682 60.6039 145.626C60.697 145.495 60.7714 145.365 60.8458 145.216C60.9203 145.086 61.0133 144.956 61.0877 144.826C61.218 144.621 61.3668 144.398 61.5529 144.174C61.5715 144.174 61.8133 144.305 62.2599 144.602C62.7064 144.881 63.0227 145.012 63.1902 144.993C63.3577 144.974 63.5065 144.919 63.6554 144.826C63.8042 144.733 63.9531 144.584 64.1019 144.398C64.2322 144.267 64.3438 144.119 64.4554 143.97C64.5671 143.821 64.6974 143.672 64.809 143.523L64.7904 143.505C64.8276 143.449 64.8648 143.393 64.8648 143.356C64.8834 143.319 64.902 143.281 64.902 143.244C64.9951 143.132 65.0695 143.058 65.1253 142.965C65.1811 142.891 65.2369 142.816 65.2927 142.779C65.3299 142.742 65.3858 142.686 65.4602 142.574C65.5533 142.463 65.6462 142.314 65.7951 142.128C65.9067 141.96 65.9998 141.849 66.0742 141.774C66.1486 141.681 66.2231 141.644 66.2789 141.644C66.3347 141.644 66.3905 141.644 66.4091 141.663C66.4463 141.681 66.4649 141.7 66.4649 141.756C66.4836 141.793 66.4836 141.83 66.4649 141.886C66.4649 141.942 66.4463 142.016 66.4463 142.091C66.4277 142.165 66.4091 142.239 66.4091 142.277C66.3905 142.332 66.3905 142.37 66.3905 142.388C66.3161 142.872 66.2603 143.319 66.1858 143.672C66.13 144.026 66.0742 144.342 66.0184 144.584C66.0556 144.733 66.0928 144.9 66.1486 145.049C66.1859 145.198 66.3161 145.254 66.5394 145.235C66.651 145.216 66.7626 145.198 66.8371 145.161C66.9301 145.123 67.0045 145.068 67.0603 144.993C67.1162 144.919 67.1906 144.844 67.2464 144.77C67.3022 144.677 67.3766 144.602 67.4325 144.528C67.6743 144.193 67.879 143.914 68.0279 143.672C68.1953 143.43 68.307 143.244 68.3628 143.095C68.3814 143.021 68.4558 142.946 68.5488 142.872C68.6605 142.798 68.8094 142.63 69.0326 142.388C69.1443 142.258 69.2373 142.165 69.3303 142.072C69.4233 141.997 69.5164 141.923 69.628 141.886L69.7024 141.904C69.8513 142.053 69.9815 142.165 70.0932 142.277C70.2048 142.388 70.2979 142.463 70.3909 142.537C70.5025 142.705 70.5955 142.835 70.6886 142.965C70.763 143.058 70.8374 143.132 70.8933 143.17C70.9863 143.281 71.0979 143.337 71.2282 143.393C71.3584 143.43 71.47 143.43 71.6189 143.412C71.7305 143.393 71.8422 143.356 71.9352 143.3C72.0468 143.244 72.1585 143.132 72.2701 143.002C72.3632 142.909 72.4376 142.816 72.5306 142.723C72.6237 142.63 72.6981 142.537 72.7911 142.444C72.9772 142.184 73.126 141.96 73.2749 141.83C73.4051 141.681 73.5167 141.607 73.6098 141.588C73.647 141.588 73.6842 141.607 73.7586 141.663C73.8144 141.718 73.8889 141.811 73.9819 141.923C74.0377 141.997 74.1121 142.053 74.168 142.128C74.2238 142.184 74.261 142.221 74.2982 142.277C74.5587 142.798 74.7634 143.095 74.9308 143.188C75.0983 143.281 75.4332 143.3 75.9542 143.225C76.0286 143.207 76.1588 143.151 76.3077 143.039C76.4565 142.928 76.6426 142.798 76.8473 142.593C77.0334 142.407 77.2008 142.258 77.331 142.128C77.4613 141.997 77.573 141.867 77.6474 141.774C77.7218 141.644 77.759 141.551 77.7776 141.514C77.7962 141.476 77.8148 141.439 77.8334 141.402C77.9451 141.197 78.0753 141.049 78.1683 140.9C78.2614 140.769 78.3544 140.639 78.4102 140.546L78.466 140.621C78.4847 140.695 78.4847 140.807 78.466 140.937C78.466 141.067 78.4474 141.197 78.4288 141.365C78.373 141.7 78.3358 142.035 78.3358 142.351C78.3358 142.649 78.3358 142.946 78.3916 143.225C78.4289 143.486 78.5032 143.672 78.6335 143.784C78.7637 143.895 78.9312 143.933 79.1731 143.895C79.3219 143.877 79.4336 143.821 79.508 143.691C79.5824 143.579 79.6755 143.449 79.7313 143.337C79.7871 143.244 79.8615 143.17 79.9174 143.114C79.9732 143.058 80.0104 143.002 80.029 142.946C80.122 142.816 80.1964 142.686 80.2709 142.556C80.3453 142.425 80.4197 142.295 80.5127 142.165C80.643 141.942 80.7918 141.737 80.9779 141.514C81.0151 141.495 81.2384 141.644 81.685 141.942C82.1315 142.239 82.4292 142.37 82.6153 142.351C82.7827 142.314 82.9316 142.258 83.0804 142.165C83.2293 142.072 83.3781 141.942 83.527 141.756C83.6572 141.607 83.7689 141.458 83.8805 141.309C83.9922 141.16 84.1224 141.011 84.234 140.862C84.1968 140.751 85.1271 139.411 84.8108 139.262ZM32.8618 145.775C32.806 145.849 32.6944 145.942 32.5827 146.072C32.4897 146.165 32.4153 146.24 32.3409 146.296C32.2665 146.37 32.192 146.426 32.1362 146.463C31.9874 146.556 31.8571 146.649 31.7269 146.723C31.5966 146.798 31.4664 146.91 31.3175 147.003C31.1129 147.151 30.9268 147.263 30.7966 147.337C30.6663 147.412 30.5547 147.449 30.4988 147.449C30.4616 147.449 30.4244 147.449 30.3872 147.412C30.35 147.393 30.3314 147.337 30.3314 147.282C30.2942 147.04 30.2942 146.705 30.3128 146.296C30.3314 145.886 30.3686 145.384 30.443 144.788L30.3314 144.454C30.3872 144.286 30.4616 143.802 30.5733 143.002C30.6849 142.202 30.7221 141.756 30.7035 141.644C30.6663 141.309 30.2569 140.862 29.5127 140.267C29.5127 140.23 29.5127 140.193 29.5313 140.193C29.5499 140.174 29.5685 140.155 29.6057 140.155C29.8104 140.211 29.9779 140.286 30.1267 140.323C30.2942 140.379 30.4244 140.397 30.536 140.435C30.6105 140.49 30.6663 140.546 30.7407 140.583C30.7965 140.639 30.871 140.676 30.9082 140.695C31.3547 140.974 31.7082 141.235 31.9873 141.458C32.2478 141.681 32.4525 141.886 32.5642 142.035C32.6014 142.109 32.6572 142.184 32.713 142.239C32.7502 142.277 32.806 142.332 32.8433 142.351C32.8805 142.388 32.9177 142.425 32.9549 142.463C32.9921 142.481 33.0107 142.518 33.0107 142.556L33.0665 142.76C33.1968 142.965 33.2898 143.188 33.3642 143.393C33.4387 143.598 33.4945 143.802 33.5317 144.007C33.5689 144.36 33.5689 144.658 33.4573 144.937C33.3642 145.198 33.2154 145.44 32.9921 145.644C32.9735 145.663 32.9177 145.7 32.8618 145.775ZM37.9042 146.016C37.9042 146.128 37.8856 146.24 37.867 146.314C37.8484 146.389 37.8298 146.444 37.7739 146.482C37.7181 146.593 37.6437 146.705 37.5693 146.817C37.4204 147.133 37.2343 147.375 37.0483 147.542C36.8436 147.71 36.6203 147.821 36.3598 147.858C36.1924 147.877 36.0807 147.858 35.9877 147.784C35.8947 147.71 35.8389 147.598 35.8203 147.449C35.8017 147.356 35.8017 147.263 35.8203 147.133C35.8389 147.003 35.8575 146.854 35.8947 146.668C35.9319 146.463 35.9691 146.296 36.0249 146.184C36.0807 146.072 36.118 146.016 36.1738 145.998C36.2668 145.961 36.3412 145.942 36.397 145.886C36.4529 145.849 36.5273 145.775 36.5645 145.7C36.639 145.533 36.7134 145.384 36.7692 145.235C36.8064 145.142 36.8622 145.068 36.8995 145.012C36.9553 144.956 36.9738 144.919 37.0111 144.9C37.1971 144.9 37.3274 144.9 37.439 144.9C37.532 144.919 37.6065 144.919 37.6251 144.937C37.6809 144.956 37.7181 145.012 37.7739 145.105C37.8484 145.198 37.9042 145.328 37.9786 145.477L37.9042 146.016ZM41.0673 143.207C41.0487 143.132 41.0673 142.984 41.0859 142.779C41.1231 142.574 41.1603 142.314 41.2347 141.979C41.3091 141.756 41.365 141.551 41.4394 141.365C41.4766 141.216 41.5324 141.086 41.551 140.974C41.5696 140.881 41.5882 140.807 41.5696 140.769C41.551 140.528 41.5882 140.248 41.6999 139.951C41.8301 139.653 42.0162 139.355 42.2953 139.002L42.3511 139.02C42.3511 139.132 42.3325 139.244 42.3325 139.355C42.3139 139.467 42.3139 139.579 42.3325 139.69C42.3325 139.821 42.2767 140.174 42.1464 140.714C42.0162 141.253 41.9231 141.588 41.8487 141.718C41.7743 141.904 41.6999 142.091 41.6441 142.239C41.5696 142.388 41.5138 142.5 41.4952 142.611C41.4208 142.816 41.365 142.965 41.3091 143.077C41.2533 143.188 41.1975 143.244 41.1417 143.263L41.0673 143.207ZM55.357 142.388C55.3197 142.463 55.2825 142.5 55.2267 142.5C55.1709 142.518 55.1523 142.5 55.1337 142.5C55.1151 142.481 55.0964 142.463 55.0964 142.425C55.0778 142.277 55.1523 142.016 55.3198 141.681C55.4872 141.328 55.6174 141.142 55.7477 141.123C55.7849 141.123 55.8221 141.123 55.8407 141.16C55.8593 141.197 55.8779 141.235 55.8779 141.272C55.8965 141.346 55.8779 141.439 55.8593 141.514C55.8221 141.607 55.8035 141.681 55.7291 141.774C55.6919 141.849 55.6361 141.904 55.5988 141.979C55.543 142.053 55.5058 142.128 55.45 142.184C55.4314 142.258 55.3942 142.314 55.357 142.388Z" fill="#00426D"/>
<path fill-rule="evenodd" clip-rule="evenodd" d="M80.383 75.2937C80.6435 74.6797 80.7737 73.9913 80.7737 73.2842C80.7737 70.363 78.3921 68 75.4709 68C72.5497 68 70.1867 70.363 70.1867 73.2842C70.1867 73.3772 70.1867 73.4703 70.2053 73.5633H38.1466C32.5647 73.5633 28.0061 78.1219 28.0061 83.6852V120.228C28.0061 125.791 32.5647 130.35 38.1466 130.35H74.7453C80.3086 130.35 84.8857 125.791 84.8857 120.228V83.7038C84.8857 80.2058 83.0809 77.1171 80.383 75.2937Z" fill="#00426D"/>
<path fill-rule="evenodd" clip-rule="evenodd" d="M78.5776 90.644V101.957V113.288V124.601H72.3816V118.535L72.0095 119.651L71.5443 120.749L71.0047 121.772L70.3908 122.703L70.0558 123.112L69.7023 123.484L68.9394 124.08L68.5301 124.303L68.1022 124.489L67.6742 124.582L67.2277 124.601H60.9201L59.5246 114.535L62.6691 114.609L63.6366 114.59L64.6042 114.535L65.5717 114.33L66.0368 114.181L66.4462 113.976L66.6322 113.753L66.7811 113.474L66.9113 113.213L67.0044 112.916L67.0602 112.581L67.0788 112.227L67.0602 111.483L66.93 110.702L66.7067 109.902L66.4462 109.083L66.1299 108.301L62.5016 101.082L65.3484 95.5933L65.7392 94.7002L66.0555 93.9187L66.2601 93.2116L66.409 92.579L66.4462 92.0022L66.4276 91.5185L66.3531 91.0905L66.2043 90.7184L65.9996 90.4021L65.7392 90.1416L65.4228 89.9369L65.0507 89.7695L64.66 89.6392L64.232 89.5648L63.7482 89.509H63.2459H60.734L60.8271 91.1649L60.8457 92.8395L60.7899 94.5141L60.641 96.1887L60.4549 97.826L60.1945 99.4262L59.8782 100.933L59.6921 101.64L59.5246 102.329L59.3013 103.054L59.0222 103.78L58.3896 105.306L58.0175 106.106L57.6268 106.906L56.6965 108.525L56.2127 109.362L55.6917 110.181L54.5567 111.837L53.3659 113.455L52.7333 114.255L52.1193 115.056V124.601H47.077V119.205L45.9792 124.601H34.313V113.288V101.957V90.644V79.3313H40.5089L40.4717 96.9515L40.4531 114.609H47.077V102.961V91.3324H52.1193V103.185L52.6217 102.329L53.2171 101.287L53.8125 100.133L54.3893 98.8866L54.9102 97.5841L55.3382 96.2631L55.5242 95.5933L55.6359 94.9606L55.7103 94.3094L55.7475 93.714L55.6917 92.3371L55.5242 91.351L55.3754 91.0161L55.2266 90.737L55.0405 90.5137L54.8358 90.3649L54.3335 90.216L53.7381 90.1788L52.2681 90.2346H45.6629L47.077 79.3871H53.6822L54.3148 79.4057L54.9475 79.5174L55.487 79.6662L56.0452 79.8895L56.5476 80.1686L57.0128 80.4849L57.4779 80.857L57.8687 81.285L58.278 81.7315L58.6129 82.2711L59.2269 83.3875L59.506 84.0201L59.7479 84.6713L59.9712 85.3412L60.1386 86.0668L61.0689 79.3313H66.2229L66.8369 79.3685L67.4137 79.5174L67.9347 79.722L68.4557 79.9825L68.958 80.3546L69.4046 80.7826L69.8326 81.285L70.2047 81.8432L70.5768 82.4386L70.8931 83.0898L71.1536 83.8154L71.3769 84.5597L71.5629 85.3412L71.6932 86.1598L71.7862 87.0157L71.8048 87.8902L71.7676 89.8811L71.6374 91.6301L71.4141 93.2302L71.2838 94.0117L71.135 94.7374L70.7629 96.1887L70.3349 97.64L69.293 100.766L69.9628 102.329L70.7815 104.357L71.6374 106.757L72.0467 108.06L72.3816 109.418V94.3652V79.3313H78.5776V90.644Z" fill="white"/>
<path fill-rule="evenodd" clip-rule="evenodd" d="M75.4707 77.7869C72.9961 77.7869 70.968 75.7588 70.968 73.2841C70.968 70.8095 72.9961 68.7814 75.4707 68.7814C77.9454 68.7814 79.9735 70.8095 79.9735 73.2841C79.9921 75.7588 77.964 77.7869 75.4707 77.7869Z" fill="#ED1C24"/>
<path d="M46.5748 138.444C46.7236 138.425 46.8167 138.444 46.8911 138.481C46.9655 138.537 47.0027 138.611 47.0213 138.704C47.0027 138.872 47.0027 139.002 46.9841 139.114C46.9655 139.318 46.9283 139.504 46.9097 139.635C46.8725 139.765 46.8539 139.858 46.8539 139.914C46.8167 140.044 46.7609 140.156 46.705 140.267C46.6306 140.379 46.5376 140.472 46.4259 140.565C46.3143 140.658 46.2026 140.751 46.1282 140.788C46.0538 140.825 45.998 140.863 45.9608 140.863C45.8677 140.863 45.7747 140.863 45.6817 140.863C45.6073 140.863 45.5142 140.881 45.4212 140.9C45.3467 140.863 45.2723 140.788 45.2165 140.695C45.1421 140.584 45.1235 140.435 45.0863 140.249C45.0677 140.081 45.1421 139.858 45.3096 139.579C45.477 139.3 45.6444 139.132 45.7933 139.095C45.8677 138.965 45.9608 138.816 46.0724 138.648C46.1282 138.611 46.184 138.555 46.2771 138.518C46.3701 138.481 46.4632 138.444 46.5748 138.444Z" fill="#ED1C24"/>
<path d="M74.8936 134.518C75.0425 134.499 75.1355 134.518 75.2099 134.555C75.2844 134.611 75.3216 134.685 75.3402 134.797C75.3216 134.965 75.3216 135.095 75.3216 135.188C75.2844 135.392 75.2658 135.56 75.2286 135.709C75.21 135.839 75.1913 135.932 75.1727 135.988C75.1355 136.118 75.0797 136.248 75.0239 136.341C74.9495 136.434 74.8564 136.546 74.7448 136.639C74.6331 136.751 74.5401 136.825 74.4471 136.862C74.354 136.9 74.2982 136.937 74.2796 136.937C74.1866 136.937 74.0936 136.937 74.0005 136.955C73.9075 136.955 73.8331 136.974 73.7401 136.974C73.6656 136.937 73.5912 136.881 73.5354 136.769C73.4796 136.658 73.4237 136.509 73.4051 136.323C73.3865 136.155 73.4609 135.932 73.6284 135.653C73.7959 135.374 73.9447 135.206 74.1122 135.169C74.1866 135.039 74.2796 134.89 74.3913 134.723C74.4471 134.685 74.5029 134.63 74.5959 134.592C74.6703 134.555 74.782 134.537 74.8936 134.518Z" fill="#ED1C24"/>
<path d="M99.4168 68H98.7656V153.18H99.4168V68Z" fill="#00426D"/>
<path d="M121.298 125.233L117.112 120.414H116.442V125.233H113.297V112.432H116.442V117.511H116.907L121.261 112.432H125.038L119.605 118.851L125.429 125.233H121.298Z" fill="#00426D"/>
<path d="M135.178 125.233L134.285 122.907H128.89L127.997 125.233H124.61L129.969 112.432H133.206L138.565 125.233H135.178ZM131.587 115.986L129.969 120.191H133.243L131.587 115.986Z" fill="#00426D"/>
<path d="M153.636 125.233H150.584V118.851L147.235 125.233H145.3L141.933 118.814V125.233H138.881V112.432H141.97L146.268 120.358L150.566 112.432H153.636V125.233Z" fill="#00426D"/>
<path d="M161.395 112.432C162.827 112.432 163.981 112.841 164.818 113.641C165.674 114.441 166.083 115.521 166.083 116.842C166.083 118.2 165.655 119.279 164.781 120.098C163.906 120.916 162.734 121.326 161.246 121.326H158.231V125.252H155.087V112.45H161.395V112.432ZM161.041 118.684C161.655 118.684 162.139 118.516 162.492 118.2C162.846 117.865 163.013 117.437 163.013 116.897C163.013 116.376 162.827 115.948 162.474 115.632C162.12 115.316 161.636 115.148 161.041 115.148H158.25V118.702H161.041V118.684Z" fill="#00426D"/>
<path d="M178.457 119.465C178.457 121.307 177.936 122.758 176.894 123.875C175.852 124.973 174.475 125.531 172.782 125.531C171.033 125.531 169.637 124.973 168.577 123.875C167.516 122.777 166.977 121.307 166.977 119.465V112.432H170.121V119.465C170.121 120.433 170.363 121.195 170.847 121.772C171.331 122.33 171.982 122.628 172.782 122.628C173.545 122.628 174.159 122.349 174.624 121.772C175.089 121.214 175.312 120.433 175.312 119.465V112.432H178.457V119.465V119.465Z" fill="#00426D"/>
<path d="M188.411 113.12C189.36 113.772 189.955 114.683 190.197 115.837L187.109 116.47C186.997 115.893 186.718 115.446 186.308 115.149C185.881 114.832 185.415 114.683 184.876 114.683C184.373 114.683 183.945 114.814 183.629 115.055C183.313 115.297 183.145 115.614 183.145 115.986C183.145 116.544 183.499 116.898 184.187 117.065L186.848 117.66C189.192 118.181 190.365 119.428 190.365 121.382C190.365 122.703 189.862 123.707 188.858 124.433C187.853 125.159 186.588 125.531 185.099 125.531C183.611 125.531 182.345 125.196 181.303 124.508C180.261 123.819 179.666 122.87 179.499 121.642L182.755 121.01C183.052 122.275 183.908 122.907 185.285 122.907C185.881 122.907 186.327 122.777 186.662 122.535C186.997 122.293 187.164 121.977 187.164 121.586C187.164 121.289 187.071 121.047 186.904 120.861C186.736 120.675 186.42 120.544 185.974 120.451L183.294 119.875C181.006 119.354 179.852 118.107 179.852 116.172C179.852 114.944 180.317 113.958 181.248 113.232C182.178 112.506 183.406 112.134 184.913 112.134C186.29 112.153 187.462 112.469 188.411 113.12Z" fill="#00426D"/>
<path d="M201.659 115.186V125.233H198.533V115.186H194.384V112.432H205.808V115.186H201.659Z" fill="#00426D"/>
<path d="M214.664 125.233L213.771 122.907H208.375L207.482 125.233H204.096L209.455 112.432H212.692L218.051 125.233H214.664ZM211.073 115.986L209.455 120.191H212.729L211.073 115.986Z" fill="#00426D"/>
<path d="M226.573 113.12C227.522 113.772 228.117 114.683 228.359 115.837L225.27 116.47C225.159 115.893 224.88 115.446 224.47 115.149C224.042 114.832 223.577 114.683 223.038 114.683C222.535 114.683 222.107 114.814 221.791 115.055C221.475 115.297 221.307 115.614 221.307 115.986C221.307 116.544 221.661 116.898 222.349 117.065L225.01 117.66C227.354 118.181 228.527 119.428 228.527 121.382C228.527 122.703 228.024 123.707 227.019 124.433C226.015 125.159 224.749 125.531 223.261 125.531C221.772 125.531 220.507 125.196 219.465 124.508C218.423 123.819 217.828 122.87 217.66 121.642L220.917 121.01C221.214 122.275 222.07 122.907 223.447 122.907C224.042 122.907 224.489 122.777 224.824 122.535C225.159 122.293 225.326 121.977 225.326 121.586C225.326 121.289 225.233 121.047 225.066 120.861C224.898 120.675 224.582 120.544 224.135 120.451L221.456 119.875C219.167 119.354 218.014 118.107 218.014 116.172C218.014 114.944 218.479 113.958 219.409 113.232C220.34 112.506 221.568 112.134 223.075 112.134C224.47 112.153 225.643 112.469 226.573 113.12Z" fill="#00426D"/>
<path d="M232.75 112.432H229.605V125.233H232.75V112.432Z" fill="#00426D"/>
<path d="M242.221 125.233L238.034 120.414H237.364V125.233H234.22V112.432H237.364V117.511H237.83L242.183 112.432H245.961L240.528 118.851L246.351 125.233H242.221Z" fill="#00426D"/>
<path d="M261.403 125.233H258.352V118.851L255.003 125.233H253.049L249.681 118.814V125.233H246.63V112.432H249.737L254.035 120.358L258.333 112.432H261.403V125.233Z" fill="#00426D"/>
<path d="M272.308 125.233L271.415 122.907H266.019L265.126 125.233H261.739L267.098 112.432H270.335L275.694 125.233H272.308ZM268.717 115.986L267.098 120.191H270.373L268.717 115.986Z" fill="#00426D"/>
<path d="M285.481 125.233H276.01V112.432H279.173V122.479H285.481V125.233Z" fill="#00426D"/>
<path d="M295.919 125.233L295.025 122.907H289.63L288.736 125.233H285.35L290.709 112.432H293.946L299.305 125.233H295.919ZM292.327 115.986L290.709 120.191H293.983L292.327 115.986Z" fill="#00426D"/>
<path d="M304.701 125.233H301.5V121.251L296.551 112.432H299.993L303.138 118.051L306.263 112.432H309.78L304.701 121.214V125.233Z" fill="#00426D"/>
<path d="M317.614 125.233L316.721 122.907H311.325L310.432 125.233H307.045L312.404 112.432H315.642L321 125.233H317.614ZM314.004 115.986L312.385 120.191H315.66L314.004 115.986Z" fill="#00426D"/>
</svg>
