<svg width="563" height="544" viewBox="0 0 563 544" fill="none" xmlns="http://www.w3.org/2000/svg">
<path fill-rule="evenodd" clip-rule="evenodd" d="M70 0C31.3401 0 0 31.34 0 70V373.277C0 424.796 32.4654 468.731 78.0535 485.742C57.1512 464.146 44.288 434.722 44.288 402.293V99.0163C44.288 60.3563 75.6281 29.0163 114.288 29.0163H472.565C476.103 29.0163 479.574 29.2989 482.958 29.8427C471.391 11.8889 451.222 0 428.277 0H70Z" fill="white"/>
<path fill-rule="evenodd" clip-rule="evenodd" d="M139 50C100.34 50 69 81.34 69 120V423.277C69 489.551 122.726 543.277 189 543.277H477.277C524.221 543.277 562.277 505.221 562.277 458.277V115C562.277 79.1015 533.176 50 497.277 50H139ZM275.786 274.54L219.886 298.07V314.19L275.786 337.72L280.856 321.99L240.036 306.13L280.856 290.27L275.786 274.54ZM284.023 369.05H303.913L347.333 243.21H327.703L284.023 369.05ZM355.461 337.72L411.361 314.19V298.07L355.461 274.54L350.391 290.27L391.211 306.13L350.391 321.99L355.461 337.72Z" fill="white"/>
</svg>
