<svg id="logo" xmlns="http://www.w3.org/2000/svg" xmlns:xlink="http://www.w3.org/1999/xlink" viewBox="0 0 800 800" shape-rendering="geometricPrecision" text-rendering="geometricPrecision"><style><![CDATA[#logo-logo_tr {animation: logo-logo_tr__tr 5000ms linear infinite normal forwards}@keyframes logo-logo_tr__tr { 0% {transform: translate(399.317841px,396.721527px) rotate(0deg);animation-timing-function: cubic-bezier(0.765000,0.005000,0.040000,0.995000)} 20% {transform: translate(399.317841px,396.721527px) rotate(360deg)} 80% {transform: translate(399.317841px,396.721527px) rotate(360deg);animation-timing-function: cubic-bezier(0.765000,0.005000,0.040000,0.995000)} 100% {transform: translate(399.317841px,396.721527px) rotate(0deg)} }#logo-logo_ts {animation: logo-logo_ts__ts 5000ms linear infinite normal forwards}@keyframes logo-logo_ts__ts { 0% {transform: scale(0,0);animation-timing-function: cubic-bezier(0.765000,0.005000,0.040000,0.995000)} 20% {transform: scale(1,1);animation-timing-function: cubic-bezier(0.545000,0.135000,0.315000,0.890000)} 80% {transform: scale(1,1);animation-timing-function: cubic-bezier(0.765000,0.005000,0.040000,0.995000)} 100% {transform: scale(0,0)} }#logo-path1_to {animation: logo-path1_to__to 5000ms linear infinite normal forwards}@keyframes logo-path1_to__to { 0% {transform: translate(571.638504px,560.638502px)} 20% {transform: translate(571.638504px,560.638502px);animation-timing-function: cubic-bezier(0.765000,0.005000,0.040000,0.995000)} 40% {transform: translate(500.479004px,516.583300px)} 60% {transform: translate(500.479004px,516.583300px);animation-timing-function: cubic-bezier(0.765000,0.005000,0.040000,0.995000)} 80% {transform: translate(569.638504px,560.871002px)} 100% {transform: translate(569.638504px,560.871002px)} }]]></style><g id="logo-logo_tr" transform="translate(399.317841,396.721527) rotate(0)"><g id="logo-logo_ts" transform="scale(0,0)"><g id="logo-logo" transform="translate(-540.138489,-539.638489)"><g id="logo-path1_to" transform="translate(571.638504,560.638502)"><path id="logo-path1" d="M329,268C290.340000,268,259,299.340000,259,338L259,641.277000C259,692.796000,291.465000,736.731000,337.054000,753.742000C316.151000,732.146000,303.288000,702.722000,303.288000,670.293000L303.288000,367.016000C303.288000,328.356000,334.628000,297.016000,373.288000,297.016000L731.565000,297.016000C735.103000,297.016000,738.574000,297.299000,741.958000,297.843000C730.391000,279.889000,710.222000,268,687.277000,268L329,268Z" transform="translate(-500.479004,-510.871002)" clip-rule="evenodd" fill="rgb(60,165,255)" fill-rule="evenodd" stroke="none" stroke-width="1"/></g><path id="logo-path2" d="M398,318C359.340000,318,328,349.340000,328,388L328,691.277000C328,757.551000,381.726000,811.277000,448,811.277000L736.277000,811.277000C783.221000,811.277000,821.277000,773.221000,821.277000,726.277000L821.277000,383C821.277000,347.101000,792.176000,318,756.277000,318L398,318ZM534.786000,542.540000L478.886000,566.070000L478.886000,582.190000L534.786000,605.720000L539.856000,589.990000L499.036000,574.130000L539.856000,558.270000L534.786000,542.540000ZM543.023000,637.050000L562.913000,637.050000L606.333000,511.210000L586.703000,511.210000L543.023000,637.050000ZM614.461000,605.720000L670.361000,582.190000L670.361000,566.070000L614.461000,542.540000L609.391000,558.270000L650.211000,574.130000L609.391000,589.990000L614.461000,605.720000Z" clip-rule="evenodd" fill="rgb(60,165,255)" fill-rule="evenodd" stroke="none" stroke-width="1"/></g></g></g></svg>